<svg width="12" height="12" viewBox="0 0 12 12" fill="none" xmlns="http://www.w3.org/2000/svg">
<path d="M10.3161 0.847948L10.3161 0.84789L10.3085 0.847909L6.44119 0.857259L6.44118 0.857259C6.01342 0.858299 5.66742 1.20588 5.66843 1.63373L5.91708 1.63314L5.66843 1.63373C5.66944 2.06154 6.01706 2.40752 6.44487 2.4065L6.44488 2.4065L8.43572 2.40167L1.00791 9.82948C0.705401 10.132 0.705401 10.6224 1.00791 10.9249C1.31042 11.2274 1.80087 11.2274 2.10337 10.9249L9.53117 3.49714L9.52636 5.48795L9.52636 5.48796C9.52535 5.91576 9.87132 6.26338 10.2991 6.2644C10.727 6.26544 11.0746 5.91934 11.0756 5.49165L10.8256 5.49104L11.0756 5.49164L11.085 1.62436L11.0851 1.62436L11.0849 1.61936C11.0832 1.19458 10.7392 0.851059 10.3161 0.847948Z" fill="#070707" stroke="black" stroke-width="0.5"/>
</svg>
