<svg width="28" height="28" viewBox="0 0 28 28" fill="none" xmlns="http://www.w3.org/2000/svg">
<path d="M22.4285 2.856H21.8685V1.428C21.8685 0.56 21.2805 0 20.4405 0C19.6005 0 19.0125 0.56 19.0125 1.428V2.856H9.71655V1.428C9.71655 0.56 9.15655 0 8.28855 0C7.42055 0 6.86055 0.56 6.86055 1.428V2.856H5.57255C2.85655 2.856 0.560547 5.152 0.560547 7.868V23.016C0.560547 25.732 2.85655 28.028 5.57255 28.028H22.4285C25.1445 28.028 27.4405 25.732 27.4405 23.016V7.868C27.4405 5.152 25.1445 2.856 22.4285 2.856ZM5.57255 5.712H22.4285C23.5765 5.712 24.5845 6.72 24.5845 7.868V9.856H3.41655V7.868C3.41655 6.72 4.42455 5.712 5.57255 5.712ZM22.4285 25.144H5.57255C4.42455 25.144 3.41655 24.136 3.41655 22.988V12.712H24.5565V22.988C24.5845 24.136 23.5765 25.144 22.4285 25.144Z" fill="#717579"/>
</svg>
