<svg width="25" height="24" viewBox="0 0 25 24" fill="none" xmlns="http://www.w3.org/2000/svg">
<g clip-path="url(#clip0_599_2929)">
<path d="M21.5309 5.74609C20.884 5.74609 20.359 6.27109 20.359 6.91797C20.359 7.56484 20.884 8.08984 21.5309 8.08984C21.9762 8.08984 22.3418 8.45547 22.3418 8.90078V19.1102C22.3418 19.5555 21.9762 19.9211 21.5309 19.9211H3.84023C3.39492 19.9211 3.0293 19.5555 3.0293 19.1102V8.90078C3.0293 8.45547 3.39492 8.08984 3.84023 8.08984C4.48711 8.08984 5.01211 7.56484 5.01211 6.91797C5.01211 6.27109 4.48711 5.74609 3.84023 5.74609C2.10117 5.74609 0.685547 7.16172 0.685547 8.90078V19.1102C0.685547 20.8492 2.10117 22.2648 3.84023 22.2648H21.5309C23.2699 22.2648 24.6855 20.8492 24.6855 19.1102V8.90078C24.6855 7.16172 23.2699 5.74609 21.5309 5.74609Z" fill="#717579"/>
<path d="M7.79244 8.05859C8.42057 8.20391 9.05338 7.81484 9.19869 7.18203L9.81744 4.54766C9.88307 4.27109 10.1268 4.07422 10.4128 4.07422H14.9643C15.2502 4.07422 15.494 4.26641 15.5596 4.54766L16.1737 7.18672C16.3002 7.72578 16.7831 8.09141 17.3127 8.09141C17.4018 8.09141 17.4909 8.08203 17.5799 8.05859C18.2081 7.91328 18.6018 7.28047 18.4565 6.65234L17.8424 4.01328C17.5237 2.67266 16.3424 1.73047 14.9596 1.73047H10.4081C9.02994 1.73047 7.84401 2.66797 7.52994 4.01328L6.92057 6.65234C6.77057 7.28516 7.16432 7.91328 7.79244 8.05859Z" fill="#717579"/>
<path d="M12.6855 8.83203C10.1684 8.83203 8.11523 10.8805 8.11523 13.4023C8.11523 15.9242 10.1637 17.9727 12.6855 17.9727C15.2074 17.9727 17.2559 15.9242 17.2559 13.4023C17.2559 10.8805 15.2027 8.83203 12.6855 8.83203ZM12.6855 15.6242C11.4574 15.6242 10.459 14.6258 10.459 13.3977C10.459 12.1695 11.4574 11.1711 12.6855 11.1711C13.9137 11.1711 14.9121 12.1695 14.9121 13.3977C14.9121 14.6258 13.9137 15.6242 12.6855 15.6242Z" fill="#717579"/>
</g>
<defs>
<clipPath id="clip0_599_2929">
<rect width="24" height="24" fill="white" transform="translate(0.685547)"/>
</clipPath>
</defs>
</svg>
