<svg width="15" height="4" viewBox="0 0 15 4" fill="none" xmlns="http://www.w3.org/2000/svg">
<path d="M0.584071 1.64385C0.584071 1.11593 0.719268 0.74575 0.989663 0.533297C1.2665 0.314406 1.60127 0.204961 1.99399 0.204961C2.3867 0.204961 2.72148 0.314406 2.99831 0.533297C3.28158 0.74575 3.42321 1.11593 3.42321 1.64385C3.42321 2.15888 3.28158 2.53229 2.99831 2.76405C2.72148 2.98938 2.3867 3.10205 1.99399 3.10205C1.60127 3.10205 1.2665 2.98938 0.989663 2.76405C0.719268 2.53229 0.584071 2.15888 0.584071 1.64385ZM6.01128 1.64385C6.01128 1.11593 6.14648 0.74575 6.41687 0.533297C6.6937 0.314406 7.02848 0.204961 7.42119 0.204961C7.81391 0.204961 8.14868 0.314406 8.42552 0.533297C8.70879 0.74575 8.85042 1.11593 8.85042 1.64385C8.85042 2.15888 8.70879 2.53229 8.42552 2.76405C8.14868 2.98938 7.81391 3.10205 7.42119 3.10205C7.02848 3.10205 6.6937 2.98938 6.41687 2.76405C6.14648 2.53229 6.01128 2.15888 6.01128 1.64385ZM11.4385 1.64385C11.4385 1.11593 11.5737 0.74575 11.8441 0.533297C12.1209 0.314406 12.4557 0.204961 12.8484 0.204961C13.2411 0.204961 13.5759 0.314406 13.8527 0.533297C14.136 0.74575 14.2776 1.11593 14.2776 1.64385C14.2776 2.15888 14.136 2.53229 13.8527 2.76405C13.5759 2.98938 13.2411 3.10205 12.8484 3.10205C12.4557 3.10205 12.1209 2.98938 11.8441 2.76405C11.5737 2.53229 11.4385 2.15888 11.4385 1.64385Z" fill="#333333"/>
</svg>
