<svg width="18" height="16" viewBox="0 0 18 16" fill="none" xmlns="http://www.w3.org/2000/svg">
<path d="M17.511 15C17.511 15.5523 17.0402 16 16.4594 16H1.73714C1.15636 16 0.685547 15.5523 0.685547 15C0.685547 14.4477 1.15636 14 1.73714 14H16.4594C17.0402 14 17.511 14.4477 17.511 15ZM8.35472 11.8321C8.56007 12.0274 8.82915 12.125 9.09829 12.125C9.36737 12.125 9.63658 12.0274 9.84187 11.8321L13.5677 8.28909C13.9784 7.89856 13.9784 7.26541 13.5677 6.87488C13.157 6.48434 12.4912 6.48434 12.0805 6.87488L10.1499 8.71081V1C10.1499 0.447719 9.67907 0 9.09829 0C8.51752 0 8.0467 0.447719 8.0467 1V8.71081L6.11604 6.87488C5.70536 6.48434 5.03954 6.48434 4.62886 6.87488C4.21818 7.26541 4.21818 7.89856 4.62886 8.28909L8.35472 11.8321Z" fill="black"/>
</svg>
