<svg width="191" height="54" viewBox="0 0 191 54" fill="none" xmlns="http://www.w3.org/2000/svg">
<path d="M2.27979 5.34572L2.79141 6.9682C3.3487 8.73551 5.0723 8.96697 5.85919 7.38017L7.35895 4.35584C7.63462 3.79993 8.2491 3.95477 8.36915 4.6104C8.48606 5.24893 9.0768 5.4183 9.36344 4.89547L10.5066 2.81028C11.253 1.44889 12.79 1.87813 13.1066 3.53634L15.4198 15.6545C15.4914 16.0292 15.8817 15.979 15.9033 15.5923C15.9246 15.2105 16.3078 15.1544 16.385 15.5218L20.2291 33.8141C20.6353 35.7469 22.5559 35.8723 23.0887 34.0008L24.3875 29.4386C24.5496 28.8695 25.1398 28.9382 25.2325 29.537C25.3279 30.1533 25.9426 30.201 26.086 29.6031L27.2826 24.612C27.6362 23.1372 28.9812 22.7147 29.7506 23.8368L32.0379 27.1724C32.6282 28.0332 33.6674 27.5436 33.7663 26.3581C33.8954 24.8095 35.4575 24.6537 35.7421 26.161L39.4367 45.7318C39.5669 46.4217 40.2819 46.3507 40.3413 45.6419C40.4045 44.8888 41.1821 44.877 41.2569 45.628L41.7777 50.8582C41.9247 52.3346 43.431 52.3985 43.6416 50.9373L47.0369 27.3765C47.1464 26.6163 47.9265 26.6338 48.0185 27.3986C48.1034 28.1032 48.7991 28.1969 48.9783 27.5279L50.8945 20.3743C51.6008 17.7375 54.3428 18.1067 54.6775 20.8837L54.8033 21.9273C54.8808 22.5702 55.0702 23.0911 55.3291 23.4897C57.3528 26.6054 59.7282 19.2942 63.3389 18.4193C64.7401 18.0798 66.3596 18.4128 68.0614 20.0706L68.573 20.5898C69.1303 21.1554 70.8539 21.2294 71.6408 20.7217L73.1405 19.7539C73.4162 19.576 74.0307 19.6255 74.1507 19.8353C74.2676 20.0397 74.8584 20.0939 75.145 19.9266L76.2882 19.2593C77.0346 18.8236 78.5716 18.961 78.8882 19.4916L81.2014 23.3695C81.2729 23.4894 81.6633 23.4733 81.6849 23.3495C81.7062 23.2274 82.0894 23.2094 82.1666 23.327L86.0107 29.1805C86.4168 29.799 88.3375 29.8391 88.8703 29.2403L90.1691 27.7804C90.3311 27.5982 90.9214 27.6202 91.0141 27.8118C91.1095 28.0091 91.7242 28.0243 91.8675 27.833L93.0642 26.2359C93.4178 25.7639 94.7628 25.6287 95.5322 25.9878L97.8195 27.0552C98.4098 27.3306 99.449 27.1739 99.5478 26.7946C99.677 26.299 101.239 26.2492 101.524 26.7315L105.218 32.9942C105.349 33.215 106.063 33.1922 106.123 32.9654C106.186 32.7244 106.964 32.7206 107.038 32.961L107.559 34.6346C107.706 35.1071 109.213 35.1275 109.423 34.6599L112.818 27.1205C112.928 26.8772 113.708 26.8828 113.8 27.1275C113.885 27.353 114.581 27.383 114.76 27.1689L116.676 24.8798C117.382 24.036 120.124 24.1541 120.459 25.0428L120.585 25.3767C120.992 26.4563 124.48 26.4602 124.927 25.3838L130.211 6.98088C130.351 6.49288 131.039 6.48398 131.192 6.9682V6.9682C131.749 8.73551 133.473 8.96697 134.26 7.38017L135.76 4.35584C136.035 3.79993 136.65 3.95477 136.77 4.6104C136.887 5.24893 137.477 5.4183 137.764 4.89547L138.907 2.81028C139.654 1.44889 141.191 1.87813 141.507 3.53634L143.82 15.6545C143.892 16.0292 144.282 15.979 144.304 15.5923C144.325 15.2105 144.708 15.1544 144.786 15.5218L148.63 33.8141C149.036 35.7469 150.957 35.8723 151.489 34.0008L152.788 29.4386C152.95 28.8695 153.54 28.9382 153.633 29.537C153.729 30.1533 154.343 30.201 154.487 29.6031L155.683 24.612C156.037 23.1372 157.382 22.7147 158.151 23.8368L160.439 27.1724C161.029 28.0332 162.068 27.5436 162.167 26.3581C162.296 24.8095 163.858 24.6537 164.143 26.161L167.837 45.7318C167.968 46.4217 168.682 46.3507 168.742 45.6419C168.805 44.8888 169.583 44.877 169.657 45.628L170.178 50.8582C170.325 52.3346 171.832 52.3985 172.042 50.9373L175.437 27.3765C175.547 26.6163 176.327 26.6338 176.419 27.3986C176.504 28.1032 177.2 28.1969 177.379 27.5279L179.295 20.3743C180.001 17.7375 182.743 18.1067 183.078 20.8837L183.204 21.9273C183.611 25.301 187.099 25.313 187.546 21.9494C187.953 18.8848 188.239 16.909 188.239 17.3908" stroke="#34C759" stroke-width="4"/>
</svg>
