<svg width="181" height="54" viewBox="0 0 181 54" fill="none" xmlns="http://www.w3.org/2000/svg">
<path d="M2.27979 48.6543L3.84282 47.0318C5.54537 45.2645 10.811 45.033 13.215 46.6198L17.7968 49.6442C18.639 50.2001 20.5163 50.0452 20.883 49.3896C21.2402 48.7511 23.0449 48.5817 23.9206 49.1045L27.4131 51.1897C29.6933 52.5511 34.389 52.1219 35.3561 50.4637L42.4231 38.3455C42.6416 37.9708 43.8342 38.021 43.9 38.4077C43.9651 38.7895 45.136 38.8456 45.3719 38.4782L57.1156 20.1859C58.3564 18.2531 64.2241 18.1277 65.8518 19.9992L69.8198 24.5614C70.3148 25.1305 72.118 25.0618 72.4012 24.463C72.6927 23.8467 74.5706 23.799 75.0085 24.3969L78.6643 29.388C79.7446 30.8628 83.8535 31.2853 86.2041 30.1632L93.1921 26.8276C94.9953 25.9668 98.1701 26.4564 98.4721 27.6419C98.8667 29.1905 103.639 29.3463 104.508 27.839L115.795 8.2682C116.193 7.57826 118.378 7.64926 118.559 8.35805C118.752 9.11121 121.128 9.12301 121.356 8.37195L122.947 3.1418C123.396 1.66542 127.998 1.60149 128.642 3.06269L139.014 26.6235C139.349 27.3837 141.732 27.3662 142.013 26.6014C142.273 25.8968 144.398 25.8031 144.945 26.4721L150.8 33.6257C152.957 36.2625 161.334 35.8933 162.357 33.1163L162.741 32.0727C163.983 28.699 174.64 28.687 176.006 32.0506C177.251 35.1152 178.124 37.091 178.124 36.6092" stroke="#FF3B30" stroke-width="4"/>
</svg>
