<svg width="191" height="54" viewBox="0 0 191 54" fill="none" xmlns="http://www.w3.org/2000/svg">
<path d="M188.124 5.34572L187.612 6.9682C187.055 8.73551 185.331 8.96697 184.544 7.38017L183.044 4.35584C182.769 3.79993 182.154 3.95477 182.034 4.6104C181.917 5.24893 181.327 5.4183 181.04 4.89547L179.897 2.81028C179.15 1.44889 177.613 1.87813 177.297 3.53634L174.983 15.6545C174.912 16.0292 174.522 15.979 174.5 15.5923C174.479 15.2105 174.095 15.1544 174.018 15.5218L170.174 33.8141C169.768 35.7469 167.847 35.8723 167.315 34.0008L166.016 29.4386C165.854 28.8695 165.264 28.9382 165.171 29.537C165.075 30.1533 164.461 30.201 164.317 29.6031L163.121 24.612C162.767 23.1372 161.422 22.7147 160.653 23.8368L158.365 27.1724C157.775 28.0332 156.736 27.5436 156.637 26.3581C156.508 24.8095 154.946 24.6537 154.661 26.161L150.967 45.7318C150.836 46.4217 150.121 46.3507 150.062 45.6419C149.999 44.8888 149.221 44.877 149.146 45.628L148.626 50.8582C148.479 52.3346 146.972 52.3985 146.762 50.9373L143.366 27.3765C143.257 26.6163 142.477 26.6338 142.385 27.3986C142.3 28.1032 141.604 28.1969 141.425 27.5279L139.509 20.3743C138.802 17.7375 136.06 18.1067 135.726 20.8837L135.6 21.9273C135.523 22.5702 135.333 23.0911 135.074 23.4897C133.051 26.6054 130.675 19.2942 127.064 18.4193C125.663 18.0798 124.044 18.4128 122.342 20.0706L121.83 20.5898C121.273 21.1554 119.549 21.2294 118.763 20.7217L117.263 19.7539C116.987 19.576 116.373 19.6255 116.253 19.8353C116.136 20.0397 115.545 20.0939 115.258 19.9266L114.115 19.2593C113.369 18.8236 111.832 18.961 111.515 19.4916L109.202 23.3695C109.13 23.4894 108.74 23.4733 108.718 23.3495C108.697 23.2274 108.314 23.2094 108.237 23.327L104.393 29.1805C103.986 29.799 102.066 29.8391 101.533 29.2403L100.234 27.7804C100.072 27.5982 99.4819 27.6202 99.3892 27.8118C99.2938 28.0091 98.6791 28.0243 98.5358 27.833L97.3391 26.2359C96.9855 25.7639 95.6406 25.6287 94.8711 25.9878L92.5838 27.0552C91.9935 27.3306 90.9543 27.1739 90.8555 26.7946C90.7263 26.299 89.1642 26.2492 88.8796 26.7315L85.1851 32.9942C85.0548 33.215 84.3399 33.1922 84.2804 32.9654C84.2173 32.7244 83.4397 32.7206 83.3649 32.961L82.8441 34.6346C82.6971 35.1071 81.1907 35.1275 80.9802 34.6599L77.5849 27.1205C77.4753 26.8772 76.6953 26.8828 76.6032 27.1275C76.5184 27.353 75.8227 27.383 75.6435 27.1689L73.7272 24.8798C73.0209 24.036 70.2789 24.1541 69.9442 25.0428L69.8184 25.3767C69.4118 26.4563 65.9236 26.4602 65.4764 25.3838L60.1924 6.98088C60.0523 6.49288 59.364 6.48398 59.2113 6.9682V6.9682C58.654 8.73551 56.9304 8.96697 56.1435 7.38017L54.6438 4.35584C54.3681 3.79993 53.7536 3.95477 53.6336 4.6104C53.5167 5.24893 52.9259 5.4183 52.6393 4.89547L51.4961 2.81028C50.7497 1.44889 49.2127 1.87813 48.8961 3.53634L46.5829 15.6545C46.5114 16.0292 46.121 15.979 46.0995 15.5923C46.0782 15.2105 45.6949 15.1544 45.6177 15.5218L41.7736 33.8141C41.3675 35.7469 39.4468 35.8723 38.914 34.0008L37.6152 29.4386C37.4532 28.8695 36.8629 28.9382 36.7702 29.537C36.6748 30.1533 36.0601 30.201 35.9168 29.6031L34.7201 24.612C34.3665 23.1372 33.0215 22.7147 32.2521 23.8368L29.9648 27.1724C29.3745 28.0332 28.3353 27.5436 28.2365 26.3581C28.1073 24.8095 26.5452 24.6537 26.2606 26.161L22.566 45.7318C22.4358 46.4217 21.7209 46.3507 21.6614 45.6419C21.5983 44.8888 20.8207 44.877 20.7459 45.628L20.2251 50.8582C20.078 52.3346 18.5717 52.3985 18.3612 50.9373L14.9659 27.3765C14.8563 26.6163 14.0763 26.6338 13.9842 27.3986C13.8993 28.1032 13.2036 28.1969 13.0244 27.5279L11.1082 20.3743C10.4019 17.7375 7.65989 18.1067 7.32518 20.8837L7.19941 21.9273C6.79279 25.301 3.30464 25.313 2.85743 21.9494C2.44998 18.8848 2.16405 16.909 2.16405 17.3908" stroke="#34C759" stroke-width="4"/>
</svg>
