<svg width="181" height="66" viewBox="0 0 181 66" fill="none" xmlns="http://www.w3.org/2000/svg">
<path d="M2.27979 47.5798L3.07601 45.9947C3.9433 44.2681 6.62566 44.042 7.85027 45.5922L10.1843 48.5469C10.6133 49.09 11.5696 48.9387 11.7564 48.2982C11.9384 47.6744 12.8577 47.5089 13.3038 48.0197L15.0829 50.0569C16.2445 51.3869 18.6365 50.9676 19.1291 49.3475L22.7291 37.5084C22.8404 37.1424 23.4479 37.1914 23.4815 37.5692C23.5146 37.9422 24.1111 37.997 24.2312 37.6381L30.2135 19.7671C30.8456 17.8788 33.8347 17.7562 34.6638 19.5846L36.6851 24.0418C36.9373 24.5978 37.8559 24.5307 38.0002 23.9457C38.1486 23.3435 39.1053 23.297 39.3283 23.8811L41.1906 28.7572C41.7409 30.198 43.834 30.6108 45.0315 29.5146L48.5912 26.2558C49.5098 25.4149 51.127 25.8932 51.2809 27.0513C51.4818 28.5643 53.9129 28.7166 54.3558 27.2439L60.1055 8.12384C60.3082 7.44979 61.4209 7.51916 61.5134 8.21162C61.6116 8.94743 62.8218 8.95897 62.9382 8.2252L63.7487 3.1155C63.9775 1.67313 66.3217 1.61067 66.6494 3.03822L71.9334 26.0564C72.1039 26.7991 73.3178 26.782 73.4611 26.0348C73.5931 25.3465 74.6758 25.2549 74.9547 25.9085L77.9369 32.8974C79.0361 35.4735 83.3034 35.1127 83.8242 32.3997V32.3997C83.9528 31.7302 84.2417 31.0943 84.6873 30.5784C88.3635 26.3214 89.8958 27.3267 90.3895 29.7257C91.0478 32.924 90.9362 37.3844 94.1874 37.0808C95.5748 36.9512 96.8722 36.1305 97.1622 34.6199L97.3579 33.6003C97.8788 30.8873 102.146 30.5265 103.245 33.1026L106.227 40.0915C106.506 40.7451 107.589 40.6535 107.721 39.9652C107.864 39.218 109.078 39.2009 109.249 39.9436L114.533 62.9618C114.86 64.3893 117.205 64.3269 117.433 62.8845L118.244 57.7748C118.36 57.041 119.571 57.0526 119.669 57.7884C119.761 58.4808 120.874 58.5502 121.077 57.8762L126.826 38.7561C127.269 37.2834 129.7 37.4357 129.901 38.9487C130.055 40.1068 131.672 40.5851 132.591 39.7442L136.151 36.4854C137.348 35.3892 139.441 35.802 139.992 37.2428L141.854 42.1189C142.077 42.703 143.034 42.6565 143.182 42.0543C143.326 41.4693 144.245 41.4022 144.497 41.9582L146.518 46.4154C147.347 48.2438 150.337 48.1212 150.969 46.2329L156.951 28.3619C157.071 28.003 157.668 28.0578 157.701 28.4308C157.734 28.8086 158.342 28.8576 158.453 28.4916L162.053 16.6525C162.546 15.0324 164.938 14.6131 166.099 15.9431L167.878 17.9803C168.324 18.4911 169.244 18.3256 169.426 17.7018C169.613 17.0613 170.569 16.91 170.998 17.4531L173.332 20.4078C174.557 21.958 177.239 21.7319 178.106 20.0053L178.902 18.4202" stroke="#34C759" stroke-width="4"/>
</svg>
