<svg width="180" height="37" viewBox="0 0 180 37" fill="none" xmlns="http://www.w3.org/2000/svg">
<path d="M178.124 4.20817L176.561 5.27901C174.858 6.44544 169.592 6.5982 167.188 5.55091L162.607 3.55485C161.764 3.18795 159.887 3.29015 159.52 3.72286C159.163 4.14429 157.358 4.25608 156.483 3.91101L152.99 2.53479C150.71 1.63627 146.014 1.91956 145.047 3.01398L137.98 11.012C137.762 11.2593 136.569 11.2261 136.503 10.9709C136.438 10.719 135.267 10.6819 135.031 10.9244L123.288 22.9973C122.047 24.273 116.179 24.3557 114.552 23.1206L110.584 20.1095C110.089 19.7338 108.285 19.7792 108.002 20.1744C107.711 20.5812 105.833 20.6126 105.395 20.218L101.739 16.9239C100.659 15.9506 96.5498 15.6717 94.1992 16.4123L87.2113 18.6138C85.408 19.1819 82.2332 18.8588 81.9312 18.0764C81.5367 17.0543 76.7643 16.9514 75.8949 17.9463L64.6078 30.863C64.2099 31.3184 62.0257 31.2715 61.8442 30.8037C61.6512 30.3066 59.2756 30.2988 59.0471 30.7945L57.456 34.2464C57.0069 35.2208 52.4051 35.263 51.7618 34.2986L41.389 18.7485C41.0543 18.2468 38.6713 18.2583 38.39 18.7631C38.1308 19.2281 36.0054 19.29 35.4579 18.8484L29.6038 14.127C27.4459 12.3867 19.069 12.6304 18.0465 14.4632L17.6622 15.152C16.4199 17.3787 5.76355 17.3866 4.39731 15.1666C3.15255 13.144 2.279 11.8399 2.279 12.1579" stroke="#34C759" stroke-width="4"/>
</svg>
