<svg width="191" height="41" viewBox="0 0 191 41" fill="none" xmlns="http://www.w3.org/2000/svg">
<path d="M2.72607 36.5242L3.2377 35.3235C3.79499 34.0157 5.51859 33.8444 6.30548 35.0187L7.80524 37.2567C8.08091 37.6681 8.69539 37.5535 8.81544 37.0683C8.93235 36.5958 9.52308 36.4705 9.80973 36.8574L10.9529 38.4004C11.6993 39.4078 13.2363 39.0902 13.5529 37.8631L15.8661 28.8956C15.9376 28.6184 16.328 28.6556 16.3496 28.9417C16.3709 29.2242 16.7541 29.2657 16.8313 28.9939L20.6754 15.4576C21.0815 14.0273 23.0022 13.9345 23.535 15.3194L24.8338 18.6954C24.9958 19.1166 25.5861 19.0657 25.6788 18.6226C25.7742 18.1665 26.3889 18.1313 26.5322 18.5737L27.7289 22.2671C28.0825 23.3584 29.4275 23.6711 30.1969 22.8408L32.4842 20.3724C33.0745 19.7355 34.1137 20.0978 34.2125 20.975C34.3417 22.121 35.9038 22.2363 36.1884 21.1209L39.883 6.63847C40.0132 6.12791 40.7282 6.18046 40.7876 6.70496C40.8508 7.26229 41.6284 7.27103 41.7032 6.71524L42.224 2.84493C42.371 1.75241 43.8773 1.7051 44.0878 2.78639L47.4832 20.2214C47.5927 20.7839 48.3727 20.771 48.4648 20.205C48.5497 19.6837 49.2454 19.6143 49.4246 20.1093L51.3408 25.403C52.0471 27.3543 54.7891 27.081 55.1238 25.0261L55.2496 24.2538V24.2538C55.9104 20.1969 60.8802 27.094 64.9875 26.934C66.083 26.8913 67.2737 26.5173 68.5077 25.6277L69.0193 25.2435C69.5766 24.825 71.3002 24.7702 72.0871 25.146L73.5868 25.8621C73.8625 25.9938 74.477 25.9571 74.597 25.8019C74.7139 25.6507 75.3047 25.6105 75.5913 25.7344L76.7345 26.2281C77.4809 26.5505 79.0179 26.4489 79.3345 26.0562L81.6477 23.1866C81.7192 23.0979 82.1096 23.1098 82.1311 23.2013C82.1524 23.2917 82.5357 23.305 82.6129 23.218L86.457 18.8864C86.8631 18.4287 88.7838 18.399 89.3166 18.8422L90.6154 19.9225C90.7774 20.0573 91.3677 20.041 91.4604 19.8992C91.5558 19.7533 92.1705 19.742 92.3138 19.8836L93.5105 21.0655C93.8641 21.4147 95.2091 21.5147 95.9785 21.249L98.2658 20.4592C98.8561 20.2553 99.8953 20.3713 99.9941 20.652C100.123 21.0187 101.685 21.0556 101.97 20.6987L105.665 16.0643C105.795 15.9009 106.51 15.9177 106.569 16.0856C106.632 16.2639 107.41 16.2667 107.485 16.0889L108.006 14.8504C108.153 14.5008 109.659 14.4856 109.869 14.8316L113.265 20.4108C113.374 20.5909 114.154 20.5867 114.246 20.4056C114.331 20.2388 115.027 20.2166 115.206 20.375L117.122 22.069C117.829 22.6934 120.571 22.6059 120.905 21.9483L121.031 21.7012C121.438 20.9023 124.926 20.8995 125.373 21.696L130.655 35.3075C130.827 35.7515 131.452 35.7618 131.638 35.3235V35.3235C132.196 34.0157 133.919 33.8444 134.706 35.0187L136.206 37.2567C136.482 37.6681 137.096 37.5535 137.216 37.0683C137.333 36.5958 137.924 36.4705 138.21 36.8574L139.354 38.4004C140.1 39.4078 141.637 39.0902 141.953 37.8631L144.267 28.8956C144.338 28.6184 144.729 28.6556 144.75 28.9417C144.771 29.2242 145.155 29.2657 145.232 28.9939L149.076 15.4576C149.482 14.0273 151.403 13.9345 151.936 15.3194L153.234 18.6954C153.396 19.1166 153.987 19.0657 154.079 18.6226C154.175 18.1665 154.79 18.1313 154.933 18.5737L156.129 22.2671C156.483 23.3584 157.828 23.6711 158.597 22.8408L160.885 20.3724C161.475 19.7355 162.514 20.0978 162.613 20.975C162.742 22.121 164.304 22.2363 164.589 21.1209L168.284 6.63847C168.414 6.12791 169.129 6.18046 169.188 6.70496C169.251 7.26229 170.029 7.27103 170.104 6.71524L170.625 2.84493C170.772 1.75241 172.278 1.7051 172.488 2.78639L175.884 20.2214C175.993 20.7839 176.773 20.771 176.865 20.205C176.95 19.6837 177.646 19.6143 177.825 20.1093L179.741 25.403C180.448 27.3543 183.19 27.081 183.524 25.0261L183.65 24.2538C184.057 21.7572 187.545 21.7484 187.992 24.2375C188.4 26.5052 188.686 27.9673 188.686 27.6108" stroke="#FF3B30" stroke-width="4"/>
</svg>
