<svg width="198" height="44" viewBox="0 0 198 44" fill="none" xmlns="http://www.w3.org/2000/svg">
<path d="M195.905 12.5937L195.111 13.6163C194.247 14.7303 191.573 14.8762 190.352 13.876L188.026 11.9697C187.598 11.6193 186.645 11.7169 186.459 12.1302C186.277 12.5327 185.361 12.6394 184.916 12.3099L183.143 10.9956C181.985 10.1375 179.601 10.408 179.11 11.4532L175.522 19.0914C175.411 19.3275 174.805 19.2958 174.772 19.0521C174.739 18.8115 174.144 18.7761 174.024 19.0077L168.061 30.5374C167.431 31.7556 164.452 31.8347 163.626 30.6551L161.611 27.7795C161.359 27.4207 160.444 27.4641 160.3 27.8415C160.152 28.23 159.199 28.26 158.976 27.8832L157.12 24.7373C156.571 23.8077 154.485 23.5414 153.292 24.2486L149.743 26.3511C148.828 26.8936 147.216 26.585 147.062 25.8379C146.862 24.8617 144.439 24.7635 143.997 25.7136L138.266 38.0491C138.064 38.484 136.955 38.4393 136.863 37.9925C136.765 37.5178 135.559 37.5103 135.443 37.9837L134.635 41.2803C134.407 42.2109 132.07 42.2512 131.744 41.3302L126.477 26.4797C126.307 26.0006 125.097 26.0116 124.954 26.4937C124.822 26.9377 123.743 26.9968 123.465 26.5752L120.493 22.0662C119.397 20.4042 115.144 20.637 114.624 22.3873V22.3873C114.497 22.8156 114.243 23.199 113.887 23.4694C111.589 25.2167 110.115 25.6521 109.203 25.3678C106.101 24.4007 106.898 18.9165 103.69 19.4335C102.551 19.6171 101.576 20.1244 101.33 20.9549L101.135 21.6127C100.615 23.363 96.3619 23.5958 95.2662 21.9338L92.2937 17.4248C92.0157 17.0031 90.9365 17.0622 90.805 17.5063C90.6621 17.9884 89.4521 17.9994 89.2822 17.5203L84.0153 2.66982C83.6887 1.74882 81.3521 1.78911 81.124 2.71968L80.3161 6.01626C80.2001 6.48965 78.9939 6.48221 78.8959 6.0075C78.8037 5.56075 77.6946 5.51599 77.4926 5.95086L71.7615 18.2864C71.3201 19.2365 68.8969 19.1383 68.6965 18.1621C68.5432 17.415 66.9312 17.1064 66.0155 17.6489L62.4674 19.7514C61.2738 20.4586 59.1875 20.1923 58.639 19.2627L56.7827 16.1168C56.5604 15.74 55.6068 15.77 55.4588 16.1585C55.315 16.5359 54.3994 16.5793 54.1481 16.2205L52.1333 13.3449C51.3068 12.1653 48.3275 12.2444 47.6974 13.4626L41.7345 24.9923C41.6147 25.2239 41.0202 25.1885 40.9871 24.9479C40.9537 24.7042 40.3482 24.6725 40.2372 24.9086L36.6489 32.5468C36.1579 33.592 33.7736 33.8625 32.6158 33.0044L30.8424 31.6901C30.3978 31.3606 29.4814 31.4673 29.3001 31.8698C29.1138 32.2831 28.1606 32.3807 27.733 32.0303L25.4066 30.124V30.124C22.8678 28.0438 18.7853 30.5367 15.5141 30.8055L0.608446 32.0303" stroke="#34C759" stroke-width="4"/>
</svg>
