<svg width="190" height="28" viewBox="0 0 190 28" fill="none" xmlns="http://www.w3.org/2000/svg">
<path d="M1.94482 24.3941L2.45645 23.6153C3.01374 22.767 4.73734 22.6559 5.52423 23.4175L7.02399 24.8692C7.29966 25.136 7.91414 25.0617 8.03419 24.747C8.1511 24.4405 8.74183 24.3592 9.02848 24.6102L10.1717 25.6111C10.9181 26.2645 12.4551 26.0585 12.7716 25.2626L15.0849 19.4458C15.1564 19.266 15.5467 19.2901 15.5683 19.4757C15.5896 19.6589 15.9729 19.6859 16.0501 19.5095L19.8941 10.7292C20.3003 9.80148 22.221 9.74128 22.7537 10.6396L24.0526 12.8295C24.2146 13.1027 24.8049 13.0697 24.8976 12.7822C24.993 12.4864 25.6077 12.4635 25.751 12.7505L26.9476 15.1462C27.3012 15.8541 28.6462 16.0569 29.4156 15.5183L31.703 13.9173C32.2932 13.5041 33.3324 13.7391 33.4313 14.3081C33.5604 15.0514 35.1226 15.1262 35.4071 14.4027L39.1017 5.00874C39.232 4.67756 39.9469 4.71165 40.0064 5.05186C40.0695 5.41338 40.8471 5.41905 40.9219 5.05854L41.4427 2.54806C41.5897 1.8394 43.096 1.80872 43.3066 2.51009L46.7019 13.8193C46.8115 14.1842 47.5915 14.1758 47.6836 13.8087C47.7684 13.4705 48.4641 13.4255 48.6433 13.7466L50.5595 17.1803C51.2659 18.446 54.0079 18.2688 54.3426 16.9358L54.4684 16.4349V16.4349C55.3142 13.0663 60.2785 18.074 63.7503 18.1727C64.9681 18.2073 66.3191 17.9841 67.7264 17.3261L68.238 17.0769C68.7953 16.8054 70.5189 16.7699 71.3058 17.0136L72.8056 17.4781C73.0812 17.5635 73.6957 17.5397 73.8158 17.439C73.9327 17.341 74.5234 17.3149 74.8101 17.3953L75.9533 17.7155C76.6996 17.9246 78.2367 17.8587 78.5532 17.604L80.8665 15.7427C80.938 15.6851 81.3283 15.6928 81.3499 15.7522C81.3712 15.8109 81.7545 15.8195 81.8317 15.7631L85.6757 12.9534C86.0819 12.6565 88.0025 12.6372 88.5353 12.9247L89.8341 13.6254C89.9962 13.7129 90.5864 13.7023 90.6791 13.6103C90.7745 13.5156 91.3892 13.5083 91.5326 13.6002L92.7292 14.3668C93.0828 14.5933 94.4278 14.6582 95.1972 14.4859L97.4846 13.9735C98.0748 13.8413 99.114 13.9165 99.2129 14.0986C99.342 14.3365 100.904 14.3604 101.189 14.1289L104.883 11.1228C105.014 11.0168 105.729 11.0277 105.788 11.1366C105.851 11.2523 106.629 11.2541 106.703 11.1387L107.224 10.3354C107.371 10.1086 108.878 10.0988 109.088 10.3232L112.483 13.9422C112.593 14.0589 113.373 14.0562 113.465 13.9388C113.55 13.8306 114.246 13.8162 114.425 13.9189L116.341 15.0177C117.047 15.4227 119.789 15.366 120.124 14.9395L120.25 14.7792C120.581 14.3573 122.955 14.2776 124.067 14.5414C124.444 14.6309 124.692 14.9431 124.891 15.2757L129.867 23.5944C130.088 23.9643 130.62 23.9756 130.857 23.6153V23.6153C131.414 22.767 133.138 22.6559 133.925 23.4175L135.425 24.8692C135.7 25.136 136.315 25.0617 136.435 24.747C136.552 24.4405 137.142 24.3592 137.429 24.6102L138.572 25.6111C139.319 26.2645 140.856 26.0585 141.172 25.2626L143.485 19.4458C143.557 19.266 143.947 19.2901 143.969 19.4757C143.99 19.6589 144.373 19.6859 144.451 19.5095L148.295 10.7292C148.701 9.80148 150.622 9.74128 151.154 10.6396L152.453 12.8295C152.615 13.1027 153.205 13.0697 153.298 12.7822C153.394 12.4864 154.008 12.4635 154.152 12.7505L155.348 15.1462C155.702 15.8541 157.047 16.0569 157.816 15.5183L160.104 13.9173C160.694 13.5041 161.733 13.7391 161.832 14.3081C161.961 15.0514 163.523 15.1262 163.808 14.4027L167.502 5.00874C167.633 4.67756 168.348 4.71165 168.407 5.05186C168.47 5.41338 169.248 5.41905 169.322 5.05854L169.843 2.54806C169.99 1.8394 171.497 1.80872 171.707 2.51009L175.102 13.8193C175.212 14.1842 175.992 14.1758 176.084 13.8087C176.169 13.4705 176.865 13.4255 177.044 13.7466L178.96 17.1803C179.666 18.446 182.408 18.2688 182.743 16.9358L182.869 16.4349C183.276 14.8155 186.764 14.8098 187.211 16.4243C187.618 17.8953 187.904 18.8437 187.904 18.6124" stroke="#FF3B30" stroke-width="4"/>
</svg>
