<svg width="264" height="46" viewBox="0 0 264 46" fill="none" xmlns="http://www.w3.org/2000/svg">
<line x1="30.9448" y1="16.5" x2="256.35" y2="16.5" stroke="#707579"/>
<path d="M148.432 17L140.605 4.25L156.258 4.25L148.432 17Z" fill="black"/>
<path d="M10.8792 41.392V40.096C8.9272 39.92 7.5192 38.848 7.5192 37.04H9.4712C9.5352 37.84 9.9832 38.432 10.8792 38.592V35.072C9.2792 34.672 7.5192 34.224 7.5192 31.968C7.5192 30.176 8.8952 28.944 10.8792 28.768V27.456H11.9192V28.752C13.7592 28.912 15.0072 29.92 15.1512 31.728H13.1992C13.1352 31.088 12.6872 30.496 11.9192 30.304V33.76C13.5192 34.144 15.2632 34.576 15.2632 36.832C15.2632 38.384 14.0792 39.888 11.9192 40.08V41.392H10.8792ZM13.4232 36.928C13.4232 36.016 12.7832 35.616 11.9192 35.344V38.592C12.8792 38.432 13.4232 37.76 13.4232 36.928ZM9.3752 31.872C9.3752 32.8 10.0152 33.216 10.8792 33.488V30.256C9.9992 30.368 9.3752 30.896 9.3752 31.872ZM18.4055 28.304H25.4455V29.904H20.0855V33.088C20.5175 32.512 21.4615 32.032 22.5015 32.032C25.3655 32.032 26.2455 34.16 26.2455 35.92C26.2455 38.24 24.9175 40 22.2135 40C19.8135 40 18.4215 38.672 18.1495 36.848H19.9255C20.1655 37.84 20.9975 38.48 22.2295 38.48C23.7975 38.48 24.5015 37.408 24.5015 35.968C24.5015 34.448 23.7495 33.584 22.2295 33.584C21.1575 33.584 20.4375 34.176 20.1335 35.04H18.4055V28.304ZM27.2642 42.224L28.4002 37.808H30.3842L28.4482 42.224H27.2642ZM32.218 28.304H39.258V29.904H33.898V33.088C34.33 32.512 35.274 32.032 36.314 32.032C39.178 32.032 40.058 34.16 40.058 35.92C40.058 38.24 38.73 40 36.026 40C33.626 40 32.234 38.672 31.962 36.848H33.738C33.978 37.84 34.81 38.48 36.042 38.48C37.61 38.48 38.314 37.408 38.314 35.968C38.314 34.448 37.562 33.584 36.042 33.584C34.97 33.584 34.25 34.176 33.946 35.04H32.218V28.304ZM42.4367 28.304H49.4767V29.904H44.1167V33.088C44.5487 32.512 45.4927 32.032 46.5327 32.032C49.3967 32.032 50.2767 34.16 50.2767 35.92C50.2767 38.24 48.9487 40 46.2447 40C43.8447 40 42.4527 38.672 42.1807 36.848H43.9567C44.1967 37.84 45.0287 38.48 46.2607 38.48C47.8287 38.48 48.5327 37.408 48.5327 35.968C48.5327 34.448 47.7807 33.584 46.2607 33.584C45.1887 33.584 44.4687 34.176 44.1647 35.04H42.4367V28.304ZM52.1435 31.216C52.2715 29.2 53.8395 28.064 55.9675 28.064C58.2875 28.064 59.5515 29.408 59.5515 31.104C59.5515 32.496 58.6715 33.44 57.7595 33.744V33.808C58.9755 34.176 59.7595 35.184 59.7595 36.8C59.7595 38.656 58.4475 40.064 56.0155 40.064C53.8075 40.064 52.0955 38.912 51.9835 36.624H53.7435C53.8235 37.712 54.6235 38.544 55.9995 38.544C57.3595 38.544 58.0315 37.712 58.0315 36.624C58.0315 35.088 57.0395 34.56 55.1355 34.56H54.7195V33.056H55.1515C56.7995 33.04 57.8075 32.56 57.8075 31.312C57.8075 30.304 57.1515 29.632 55.9035 29.632C54.6235 29.632 54.0315 30.4 53.9195 31.216H52.1435Z" fill="#1D1B23"/>
<path d="M213.066 41.392V40.096C211.114 39.92 209.706 38.848 209.706 37.04H211.658C211.722 37.84 212.17 38.432 213.066 38.592V35.072C211.466 34.672 209.706 34.224 209.706 31.968C209.706 30.176 211.082 28.944 213.066 28.768V27.456H214.106V28.752C215.946 28.912 217.194 29.92 217.338 31.728H215.386C215.322 31.088 214.874 30.496 214.106 30.304V33.76C215.706 34.144 217.45 34.576 217.45 36.832C217.45 38.384 216.266 39.888 214.106 40.08V41.392H213.066ZM215.61 36.928C215.61 36.016 214.97 35.616 214.106 35.344V38.592C215.066 38.432 215.61 37.76 215.61 36.928ZM211.562 31.872C211.562 32.8 212.202 33.216 213.066 33.488V30.256C212.186 30.368 211.562 30.896 211.562 31.872ZM228.064 31.04H226.384C226.16 30.096 225.6 29.568 224.448 29.568C222.8 29.568 221.952 30.688 221.904 33.744C222.48 32.784 223.632 32.272 224.848 32.272C226.944 32.272 228.432 33.68 228.432 36.112C228.432 38.32 227.104 40 224.608 40C221.216 40 220.336 37.616 220.336 33.904C220.336 30.256 221.552 28.048 224.464 28.048C226.736 28.048 227.872 29.488 228.064 31.04ZM224.448 33.808C223.248 33.808 222.112 34.528 222.112 36.08C222.112 37.52 222.96 38.48 224.512 38.48C225.856 38.48 226.688 37.568 226.688 36.192C226.688 34.8 225.984 33.808 224.448 33.808ZM229.498 42.224L230.634 37.808H232.618L230.682 42.224H229.498ZM239.539 40V37.568H233.747V36.192L239.123 28.48H241.331V35.984H242.819V37.568H241.331V40H239.539ZM235.843 35.984H239.619V30.336L235.843 35.984ZM246.299 33.904C245.307 33.408 244.635 32.576 244.635 31.28C244.635 29.584 245.899 28.128 248.475 28.128C251.051 28.128 252.315 29.6 252.315 31.28C252.315 32.528 251.595 33.44 250.651 33.904C251.835 34.352 252.619 35.392 252.619 36.784C252.619 38.912 250.891 40.288 248.475 40.288C246.075 40.288 244.347 38.912 244.347 36.784C244.347 35.376 245.131 34.336 246.299 33.904ZM248.475 33.328C249.691 33.328 250.571 32.56 250.571 31.504C250.571 30.304 249.755 29.648 248.475 29.648C247.227 29.648 246.395 30.288 246.395 31.52C246.395 32.576 247.259 33.328 248.475 33.328ZM248.475 34.704C247.131 34.704 246.091 35.36 246.091 36.72C246.091 37.904 246.987 38.768 248.475 38.768C249.947 38.768 250.827 37.888 250.827 36.72C250.827 35.408 249.851 34.704 248.475 34.704ZM255.014 28.304H262.054V29.904H256.694V33.088C257.126 32.512 258.07 32.032 259.11 32.032C261.974 32.032 262.854 34.16 262.854 35.92C262.854 38.24 261.526 40 258.822 40C256.422 40 255.03 38.672 254.758 36.848H256.534C256.774 37.84 257.606 38.48 258.838 38.48C260.406 38.48 261.11 37.408 261.11 35.968C261.11 34.448 260.358 33.584 258.838 33.584C257.766 33.584 257.046 34.176 256.742 35.04H255.014V28.304Z" fill="#1D1B23"/>
<ellipse cx="31.4764" cy="16.5" rx="2.65808" ry="2.5" fill="#707579"/>
<ellipse cx="253.691" cy="16.5" rx="2.65808" ry="2.5" fill="#707579"/>
</svg>
