<svg width="25" height="24" viewBox="0 0 25 24" fill="none" xmlns="http://www.w3.org/2000/svg">
<path d="M23.3548 2.66536V7.77036C23.3548 8.50674 22.7579 9.1037 22.0215 9.1037C21.2851 9.1037 20.6882 8.50674 20.6882 7.77036V5.88436L16.1368 10.4357C15.8764 10.696 15.5352 10.8262 15.194 10.8262C14.8527 10.8262 14.5116 10.6961 14.2512 10.4357C13.7305 9.91499 13.7305 9.07074 14.2512 8.55003L18.8025 3.9987H16.9165C16.1801 3.9987 15.5832 3.40174 15.5832 2.66536C15.5832 1.92899 16.1801 1.33203 16.9165 1.33203H22.0215C22.7579 1.33203 23.3548 1.92899 23.3548 2.66536ZM9.23953 13.5617L4.68815 18.1131V16.227C4.68815 15.4907 4.09119 14.8937 3.35482 14.8937C2.61844 14.8937 2.02148 15.4907 2.02148 16.227V21.332C2.02148 22.0684 2.61844 22.6654 3.35482 22.6654H8.45982C9.19619 22.6654 9.79315 22.0684 9.79315 21.332C9.79315 20.5957 9.19619 19.9987 8.45982 19.9987H6.57378L11.1252 15.4474C11.6459 14.9267 11.6459 14.0824 11.1252 13.5617C10.6045 13.0409 9.76023 13.0411 9.23953 13.5617Z" fill="#717579"/>
</svg>
