<svg width="26" height="20" viewBox="0 0 26 20" fill="none" xmlns="http://www.w3.org/2000/svg">
<path d="M14.3749 19.75H1.625C0.727507 19.75 0 19.0224 0 18.125C0 17.2276 0.727507 16.5 1.625 16.5H14.3749C15.2724 16.5 15.9999 17.2276 15.9999 18.125C15.9999 19.0224 15.2724 19.75 14.3749 19.75Z" fill="#717579"/>
<path d="M24.3749 11.625H1.625C0.727507 11.625 0 10.8974 0 10C0 9.10256 0.727507 8.375 1.625 8.375H24.3749C25.2724 8.375 25.9999 9.10251 25.9999 10C25.9999 10.8975 25.2724 11.625 24.3749 11.625Z" fill="#717579"/>
<path d="M24.3749 3.50001H1.625C0.727507 3.50001 0 2.7725 0 1.875C0 0.977507 0.727507 0.25 1.625 0.25H24.3749C25.2724 0.25 25.9999 0.977507 25.9999 1.875C25.9999 2.7725 25.2724 3.50001 24.3749 3.50001Z" fill="#717579"/>
</svg>
