<svg width="32" height="33" viewBox="0 0 32 33" fill="none" xmlns="http://www.w3.org/2000/svg">
<path fill-rule="evenodd" clip-rule="evenodd" d="M14.6657 7.263V4.50033C14.6657 3.76433 15.263 3.16699 15.999 3.16699C16.7337 3.16699 17.3324 3.76433 17.3324 4.50033V7.263C19.3137 7.54833 21.1657 8.46832 22.5977 9.90032C24.3484 11.651 25.3324 14.0257 25.3324 16.5003V21.519L26.411 23.6763C26.927 24.7097 26.8724 25.9363 26.2644 26.919C25.6577 27.9017 24.5844 28.5003 23.4297 28.5003H17.3324C17.3324 29.2363 16.7337 29.8337 15.999 29.8337C15.263 29.8337 14.6657 29.2363 14.6657 28.5003H8.56836C7.41236 28.5003 6.33905 27.9017 5.73238 26.919C5.12438 25.9363 5.0697 24.7097 5.58703 23.6763L6.66569 21.519V16.5003C6.66569 14.0257 7.64838 11.651 9.39905 9.90032C10.8324 8.46832 12.683 7.54833 14.6657 7.263ZM15.999 9.83365C14.2297 9.83365 12.535 10.5363 11.2844 11.787C10.0337 13.0363 9.33235 14.7323 9.33235 16.5003V21.8337C9.33235 22.0403 9.28304 22.2443 9.19104 22.4297C9.19104 22.4297 8.59769 23.6163 7.97103 24.8683C7.86836 25.075 7.87903 25.3217 8.00036 25.5177C8.1217 25.7137 8.33636 25.8337 8.56836 25.8337H23.4297C23.6604 25.8337 23.875 25.7137 23.9964 25.5177C24.1177 25.3217 24.1284 25.075 24.0257 24.8683C23.399 23.6163 22.8057 22.4297 22.8057 22.4297C22.7137 22.2443 22.6657 22.0403 22.6657 21.8337V16.5003C22.6657 14.7323 21.963 13.0363 20.7124 11.787C19.4617 10.5363 17.767 9.83365 15.999 9.83365Z" fill="#717579"/>
</svg>
