<svg width="26" height="24" viewBox="0 0 26 24" fill="none" xmlns="http://www.w3.org/2000/svg">
<path d="M13.0546 13C13.6354 13 14.1063 12.5523 14.1063 12C14.1063 11.4477 13.6354 11 13.0546 11C12.4738 11 12.0029 11.4477 12.0029 12C12.0029 12.5523 12.4738 13 13.0546 13Z" stroke="#2E2E2E" stroke-width="2" stroke-linecap="round" stroke-linejoin="round"/>
<path d="M13.0546 6C13.6354 6 14.1063 5.55228 14.1063 5C14.1063 4.44772 13.6354 4 13.0546 4C12.4738 4 12.0029 4.44772 12.0029 5C12.0029 5.55228 12.4738 6 13.0546 6Z" stroke="#2E2E2E" stroke-width="2" stroke-linecap="round" stroke-linejoin="round"/>
<path d="M13.0546 20C13.6354 20 14.1063 19.5523 14.1063 19C14.1063 18.4477 13.6354 18 13.0546 18C12.4738 18 12.0029 18.4477 12.0029 19C12.0029 19.5523 12.4738 20 13.0546 20Z" stroke="#2E2E2E" stroke-width="2" stroke-linecap="round" stroke-linejoin="round"/>
</svg>
