<svg width="24" height="24" viewBox="0 0 24 24" fill="none" xmlns="http://www.w3.org/2000/svg">
<path d="M23.7566 21.9177L23.7567 21.9177L23.7567 21.9102L23.7355 13.1519L23.4855 13.1525L23.7355 13.1519C23.7336 12.3577 23.0883 11.7154 22.294 11.7173C21.4997 11.7191 20.8574 12.3645 20.8593 13.1587L20.8593 13.1588L20.8721 18.4334L3.50869 1.06995C2.94707 0.508334 2.03655 0.508334 1.47493 1.06995C0.913309 1.63158 0.913309 2.5421 1.47493 3.10372L18.8383 20.4671L13.5638 20.4544L13.5632 20.7044L13.5638 20.4544C12.7695 20.4525 12.1242 21.0948 12.1223 21.889L23.7566 21.9177ZM23.7566 21.9177C23.7545 22.7072 23.1132 23.3505 22.3208 23.3517L22.3152 23.3519L22.3152 23.3518L13.5569 23.3306L13.5575 23.0806L13.5569 23.3306C12.7629 23.3287 12.1204 22.6834 12.1223 21.889L23.7566 21.9177Z" fill="#FFF4F4" stroke="#FFF4F4" stroke-width="0.5"/>
</svg>
