<svg width="24" height="24" viewBox="0 0 24 24" fill="none" xmlns="http://www.w3.org/2000/svg">
<path d="M21.7644 0.648626L21.7644 0.64856L21.7569 0.648577L12.9986 0.669751L12.9992 0.919751L12.9986 0.669752C12.2044 0.671683 11.5621 1.31699 11.5639 2.11132C11.5658 2.90555 12.2112 3.54787 13.0054 3.54598L13.0054 3.54598L18.28 3.53317L0.916635 20.8966C0.355014 21.4582 0.355015 22.3687 0.916636 22.9303C1.47826 23.492 2.38878 23.492 2.9504 22.9303L20.3138 5.56697L20.301 10.8415L20.551 10.8421L20.301 10.8415C20.2992 11.6357 20.9415 12.2811 21.7357 12.283L21.7644 0.648626ZM21.7644 0.648626C22.5539 0.650792 23.1972 1.29208 23.1984 2.08448L23.1985 2.09007L23.1984 2.09007L23.1773 10.8483L22.9273 10.8477L23.1773 10.8483C23.1753 11.6424 22.5301 12.2849 21.7357 12.283L21.7644 0.648626Z" fill="white" stroke="white" stroke-width="0.5"/>
</svg>
