<svg width="617" height="325" viewBox="0 0 617 325" fill="none" xmlns="http://www.w3.org/2000/svg">
<path d="M34.714 259.453V258.543C37.374 256.401 39.894 254.385 39.894 252.313C39.894 251.193 39.404 250.353 38.032 250.353C36.716 250.353 36.044 251.263 35.988 252.537H34.756C34.84 250.381 36.198 249.261 38.018 249.261C39.922 249.261 41.154 250.381 41.154 252.257C41.154 254.777 38.438 256.919 36.632 258.389H41.448V259.453H34.714ZM42.9207 254.399C42.9207 251.501 43.6487 249.289 46.4487 249.289C49.2347 249.289 49.9627 251.501 49.9627 254.399C49.9627 257.339 49.2347 259.565 46.4487 259.565C43.6487 259.565 42.9207 257.339 42.9207 254.399ZM48.7027 254.399C48.7027 252.299 48.4367 250.451 46.4487 250.451C44.4467 250.451 44.1807 252.299 44.1807 254.399C44.1807 256.583 44.4467 258.403 46.4487 258.403C48.4367 258.403 48.7027 256.583 48.7027 254.399ZM51.7118 254.399C51.7118 251.501 52.4398 249.289 55.2398 249.289C58.0258 249.289 58.7537 251.501 58.7537 254.399C58.7537 257.339 58.0258 259.565 55.2398 259.565C52.4398 259.565 51.7118 257.339 51.7118 254.399ZM57.4938 254.399C57.4938 252.299 57.2278 250.451 55.2398 250.451C53.2378 250.451 52.9718 252.299 52.9718 254.399C52.9718 256.583 53.2378 258.403 55.2398 258.403C57.2278 258.403 57.4938 256.583 57.4938 254.399ZM60.7128 259.565V249.205H61.9868V255.295L64.9408 251.893H66.7188L63.1068 255.715L66.7328 259.565H64.9968L61.9868 256.177V259.565H60.7128Z" fill="#717579"/>
<path d="M39.74 198.565V196.311H34.56V195.345L39.474 188.541H41V195.205H42.4V196.311H41V198.565H39.74ZM36.03 195.205H39.796V189.871L36.03 195.205ZM43.6727 193.399C43.6727 190.501 44.4007 188.289 47.2007 188.289C49.9867 188.289 50.7147 190.501 50.7147 193.399C50.7147 196.339 49.9867 198.565 47.2007 198.565C44.4007 198.565 43.6727 196.339 43.6727 193.399ZM49.4547 193.399C49.4547 191.299 49.1887 189.451 47.2007 189.451C45.1987 189.451 44.9327 191.299 44.9327 193.399C44.9327 195.583 45.1987 197.403 47.2007 197.403C49.1887 197.403 49.4547 195.583 49.4547 193.399ZM52.4637 193.399C52.4637 190.501 53.1917 188.289 55.9917 188.289C58.7777 188.289 59.5057 190.501 59.5057 193.399C59.5057 196.339 58.7777 198.565 55.9917 198.565C53.1917 198.565 52.4637 196.339 52.4637 193.399ZM58.2457 193.399C58.2457 191.299 57.9797 189.451 55.9917 189.451C53.9897 189.451 53.7237 191.299 53.7237 193.399C53.7237 195.583 53.9897 197.403 55.9917 197.403C57.9797 197.403 58.2457 195.583 58.2457 193.399ZM61.4647 198.565V188.205H62.7387V194.295L65.6927 190.893H67.4707L63.8587 194.715L67.4847 198.565H65.7487L62.7387 195.177V198.565H61.4647Z" fill="#717579"/>
<path d="M41.686 129.851H40.51C40.314 128.871 39.74 128.297 38.592 128.297C36.982 128.297 36.114 129.403 36.128 132.413C36.562 131.419 37.668 130.859 38.872 130.859C40.762 130.859 42.036 132.105 42.036 134.233C42.036 136.081 40.944 137.593 38.732 137.593C35.736 137.593 35.022 135.437 35.022 132.371C35.022 129.193 36.044 127.233 38.606 127.233C40.538 127.233 41.518 128.437 41.686 129.851ZM38.606 131.937C37.444 131.937 36.282 132.623 36.282 134.135C36.282 135.479 37.066 136.529 38.662 136.529C39.978 136.529 40.804 135.647 40.804 134.275C40.804 132.847 40.062 131.937 38.606 131.937ZM43.7547 132.399C43.7547 129.501 44.4827 127.289 47.2827 127.289C50.0687 127.289 50.7967 129.501 50.7967 132.399C50.7967 135.339 50.0687 137.565 47.2827 137.565C44.4827 137.565 43.7547 135.339 43.7547 132.399ZM49.5367 132.399C49.5367 130.299 49.2707 128.451 47.2827 128.451C45.2807 128.451 45.0147 130.299 45.0147 132.399C45.0147 134.583 45.2807 136.403 47.2827 136.403C49.2707 136.403 49.5367 134.583 49.5367 132.399ZM52.5457 132.399C52.5457 129.501 53.2737 127.289 56.0737 127.289C58.8597 127.289 59.5877 129.501 59.5877 132.399C59.5877 135.339 58.8597 137.565 56.0737 137.565C53.2737 137.565 52.5457 135.339 52.5457 132.399ZM58.3277 132.399C58.3277 130.299 58.0617 128.451 56.0737 128.451C54.0717 128.451 53.8057 130.299 53.8057 132.399C53.8057 134.583 54.0717 136.403 56.0737 136.403C58.0617 136.403 58.3277 134.583 58.3277 132.399ZM61.5468 137.565V127.205H62.8208V133.295L65.7748 129.893H67.5528L63.9408 133.715L67.5668 137.565H65.8308L62.8208 134.177V137.565H61.5468Z" fill="#717579"/>
<path d="M36.716 71.3014C35.68 70.8954 35.092 70.1114 35.092 68.9774C35.092 67.4934 36.212 66.2894 38.41 66.2894C40.608 66.2894 41.742 67.5074 41.742 68.9774C41.742 70.0694 41.112 70.9094 40.118 71.3014C41.266 71.6514 42.008 72.5754 42.008 73.8354C42.008 75.6694 40.552 76.8454 38.41 76.8454C36.282 76.8454 34.84 75.6694 34.84 73.8354C34.84 72.5614 35.582 71.6374 36.716 71.3014ZM38.41 70.8814C39.656 70.8814 40.51 70.1814 40.51 69.1314C40.51 67.9694 39.684 67.3534 38.41 67.3534C37.164 67.3534 36.324 67.9554 36.324 69.1454C36.324 70.1954 37.178 70.8814 38.41 70.8814ZM38.41 71.8614C37.108 71.8614 36.058 72.4494 36.058 73.7934C36.058 74.9834 36.968 75.7814 38.41 75.7814C39.852 75.7814 40.748 74.9694 40.748 73.7934C40.748 72.4914 39.74 71.8614 38.41 71.8614ZM43.7 71.3994C43.7 68.5014 44.428 66.2894 47.228 66.2894C50.014 66.2894 50.742 68.5014 50.742 71.3994C50.742 74.3394 50.014 76.5654 47.228 76.5654C44.428 76.5654 43.7 74.3394 43.7 71.3994ZM49.482 71.3994C49.482 69.2994 49.216 67.4514 47.228 67.4514C45.226 67.4514 44.96 69.2994 44.96 71.3994C44.96 73.5834 45.226 75.4034 47.228 75.4034C49.216 75.4034 49.482 73.5834 49.482 71.3994ZM52.491 71.3994C52.491 68.5014 53.219 66.2894 56.019 66.2894C58.805 66.2894 59.533 68.5014 59.533 71.3994C59.533 74.3394 58.805 76.5654 56.019 76.5654C53.219 76.5654 52.491 74.3394 52.491 71.3994ZM58.273 71.3994C58.273 69.2994 58.007 67.4514 56.019 67.4514C54.017 67.4514 53.751 69.2994 53.751 71.3994C53.751 73.5834 54.017 75.4034 56.019 75.4034C58.007 75.4034 58.273 73.5834 58.273 71.3994ZM61.4921 76.5654V66.2054H62.7661V72.2954L65.7201 68.8934H67.4981L63.8861 72.7154L67.5121 76.5654H65.7761L62.7661 73.1774V76.5654H61.4921Z" fill="#717579"/>
<path d="M35.876 15.5654V6.60543H34.532V5.44343H37.164V15.5654H35.876ZM38.4564 17.5674L39.4784 13.8014H40.8784L39.3104 17.5674H38.4564ZM42.1278 10.3994C42.1278 7.50143 42.8558 5.28943 45.6558 5.28943C48.4418 5.28943 49.1698 7.50143 49.1698 10.3994C49.1698 13.3394 48.4418 15.5654 45.6558 15.5654C42.8558 15.5654 42.1278 13.3394 42.1278 10.3994ZM47.9098 10.3994C47.9098 8.29943 47.6438 6.45143 45.6558 6.45143C43.6538 6.45143 43.3878 8.29943 43.3878 10.3994C43.3878 12.5834 43.6538 14.4034 45.6558 14.4034C47.6438 14.4034 47.9098 12.5834 47.9098 10.3994ZM50.9188 10.3994C50.9188 7.50143 51.6468 5.28943 54.4468 5.28943C57.2328 5.28943 57.9608 7.50143 57.9608 10.3994C57.9608 13.3394 57.2328 15.5654 54.4468 15.5654C51.6468 15.5654 50.9188 13.3394 50.9188 10.3994ZM56.7008 10.3994C56.7008 8.29943 56.4348 6.45143 54.4468 6.45143C52.4448 6.45143 52.1788 8.29943 52.1788 10.3994C52.1788 12.5834 52.4448 14.4034 54.4468 14.4034C56.4348 14.4034 56.7008 12.5834 56.7008 10.3994ZM59.7098 10.3994C59.7098 7.50143 60.4378 5.28943 63.2378 5.28943C66.0238 5.28943 66.7518 7.50143 66.7518 10.3994C66.7518 13.3394 66.0238 15.5654 63.2378 15.5654C60.4378 15.5654 59.7098 13.3394 59.7098 10.3994ZM65.4918 10.3994C65.4918 8.29943 65.2258 6.45143 63.2378 6.45143C61.2358 6.45143 60.9698 8.29943 60.9698 10.3994C60.9698 12.5834 61.2358 14.4034 63.2378 14.4034C65.2258 14.4034 65.4918 12.5834 65.4918 10.3994ZM68.7108 15.5654V5.20543H69.9848V11.2954L72.9388 7.89343H74.7168L71.1048 11.7154L74.7308 15.5654H72.9948L69.9848 12.1774V15.5654H68.7108Z" fill="#717579"/>
<rect x="107" y="0.56543" width="13.1429" height="288.435" rx="6.57143" fill="#FBFBFB"/>
<rect x="107" y="133.984" width="13.1429" height="154.668" rx="6.57143" fill="#34C759"/>
<rect x="152.143" y="0.56543" width="13.1429" height="288.435" rx="6.57143" fill="#FBFBFB"/>
<rect x="152.143" y="48.6377" width="13.1429" height="240.362" rx="6.57143" fill="#34C759"/>
<rect x="197.286" y="0.56543" width="13.1429" height="288" rx="6.57143" fill="#FBFBFB"/>
<rect x="197.286" y="134.565" width="13.1429" height="154.435" rx="6.57143" fill="#34C759"/>
<rect x="242.429" y="0.56543" width="13.1429" height="288.435" rx="6.57143" fill="#FBFBFB"/>
<rect x="242.429" y="175.83" width="13.1429" height="112.866" rx="6.57143" fill="#34C759"/>
<rect x="287.571" y="0.56543" width="13.1429" height="288.435" rx="6.57143" fill="#FBFBFB"/>
<rect x="287.571" y="144.783" width="13.1429" height="144.217" rx="6.57143" fill="#34C759"/>
<rect x="332.714" y="0.56543" width="13.1429" height="288.435" rx="6.57143" fill="#FBFBFB"/>
<rect x="332.714" y="154.798" width="13.1429" height="133.767" rx="6.57143" fill="#34C759"/>
<rect x="377.857" y="0.56543" width="13.1429" height="288.348" rx="6.57143" fill="#FBFBFB"/>
<rect x="377.857" y="190.795" width="13.1429" height="98.2054" rx="6.57143" fill="#34C759"/>
<rect x="423" y="0.56543" width="13.1429" height="288.391" rx="6.57143" fill="#FBFBFB"/>
<rect x="423" y="167.792" width="13.1429" height="121.208" rx="6.57143" fill="#34C759"/>
<rect x="468.143" y="0.56543" width="13.1429" height="288.435" rx="6.57143" fill="#FBFBFB"/>
<rect x="468.143" y="200.867" width="13.1429" height="87.7845" rx="6.57143" fill="#34C759"/>
<rect x="513.286" y="0.56543" width="13.1429" height="288" rx="6.57143" fill="#FBFBFB"/>
<rect x="513.286" y="134.565" width="13.1429" height="154.435" rx="6.57143" fill="#34C759"/>
<rect x="558.429" y="0.56543" width="13.1429" height="288" rx="6.57143" fill="#FBFBFB"/>
<rect x="558.429" y="134.565" width="13.1429" height="154.435" rx="6.57143" fill="#34C759"/>
<rect x="603.571" y="0.56543" width="13.1429" height="288.043" rx="6.57143" fill="#FBFBFB"/>
<rect x="603.571" y="159.589" width="13.1429" height="129.411" rx="6.57143" fill="#34C759"/>
<path d="M100.876 320V311.04H99.532V309.878H102.164V320H100.876ZM104.716 309.864H110.806V310.984H105.892V314.176C106.312 313.602 107.208 313.154 108.202 313.154C110.666 313.154 111.45 314.932 111.45 316.5C111.45 318.46 110.358 320.028 107.992 320.028C105.976 320.028 104.758 318.894 104.506 317.256H105.752C105.99 318.32 106.816 318.95 108.006 318.95C109.546 318.95 110.232 317.914 110.232 316.528C110.232 315.086 109.49 314.246 108.02 314.246C106.998 314.246 106.256 314.778 105.92 315.576H104.716V309.864Z" fill="#717579"/>
<path d="M145.876 320V311.04H144.532V309.878H147.164V320H145.876ZM156.17 312.286H154.994C154.798 311.306 154.224 310.732 153.076 310.732C151.466 310.732 150.598 311.838 150.612 314.848C151.046 313.854 152.152 313.294 153.356 313.294C155.246 313.294 156.52 314.54 156.52 316.668C156.52 318.516 155.428 320.028 153.216 320.028C150.22 320.028 149.506 317.872 149.506 314.806C149.506 311.628 150.528 309.668 153.09 309.668C155.022 309.668 156.002 310.872 156.17 312.286ZM153.09 314.372C151.928 314.372 150.766 315.058 150.766 316.57C150.766 317.914 151.55 318.964 153.146 318.964C154.462 318.964 155.288 318.082 155.288 316.71C155.288 315.282 154.546 314.372 153.09 314.372Z" fill="#717579"/>
<path d="M186.876 320V311.04H185.532V309.878H188.164V320H186.876ZM189.946 309.906H196.582V310.872L192.69 320H191.402L195.35 310.998H189.946V309.906Z" fill="#717579"/>
<path d="M235.876 320V311.04H234.532V309.878H237.164V320H235.876ZM241.2 314.736C240.164 314.33 239.576 313.546 239.576 312.412C239.576 310.928 240.696 309.724 242.894 309.724C245.092 309.724 246.226 310.942 246.226 312.412C246.226 313.504 245.596 314.344 244.602 314.736C245.75 315.086 246.492 316.01 246.492 317.27C246.492 319.104 245.036 320.28 242.894 320.28C240.766 320.28 239.324 319.104 239.324 317.27C239.324 315.996 240.066 315.072 241.2 314.736ZM242.894 314.316C244.14 314.316 244.994 313.616 244.994 312.566C244.994 311.404 244.168 310.788 242.894 310.788C241.648 310.788 240.808 311.39 240.808 312.58C240.808 313.63 241.662 314.316 242.894 314.316ZM242.894 315.296C241.592 315.296 240.542 315.884 240.542 317.228C240.542 318.418 241.452 319.216 242.894 319.216C244.336 319.216 245.232 318.404 245.232 317.228C245.232 315.926 244.224 315.296 242.894 315.296Z" fill="#717579"/>
<path d="M281.876 320V311.04H280.532V309.878H283.164V320H281.876ZM287.2 314.736C286.164 314.33 285.576 313.546 285.576 312.412C285.576 310.928 286.696 309.724 288.894 309.724C291.092 309.724 292.226 310.942 292.226 312.412C292.226 313.504 291.596 314.344 290.602 314.736C291.75 315.086 292.492 316.01 292.492 317.27C292.492 319.104 291.036 320.28 288.894 320.28C286.766 320.28 285.324 319.104 285.324 317.27C285.324 315.996 286.066 315.072 287.2 314.736ZM288.894 314.316C290.14 314.316 290.994 313.616 290.994 312.566C290.994 311.404 290.168 310.788 288.894 310.788C287.648 310.788 286.808 311.39 286.808 312.58C286.808 313.63 287.662 314.316 288.894 314.316ZM288.894 315.296C287.592 315.296 286.542 315.884 286.542 317.228C286.542 318.418 287.452 319.216 288.894 319.216C290.336 319.216 291.232 318.404 291.232 317.228C291.232 315.926 290.224 315.296 288.894 315.296Z" fill="#717579"/>
<path d="M327.876 320V311.04H326.532V309.878H329.164V320H327.876ZM333.2 314.736C332.164 314.33 331.576 313.546 331.576 312.412C331.576 310.928 332.696 309.724 334.894 309.724C337.092 309.724 338.226 310.942 338.226 312.412C338.226 313.504 337.596 314.344 336.602 314.736C337.75 315.086 338.492 316.01 338.492 317.27C338.492 319.104 337.036 320.28 334.894 320.28C332.766 320.28 331.324 319.104 331.324 317.27C331.324 315.996 332.066 315.072 333.2 314.736ZM334.894 314.316C336.14 314.316 336.994 313.616 336.994 312.566C336.994 311.404 336.168 310.788 334.894 310.788C333.648 310.788 332.808 311.39 332.808 312.58C332.808 313.63 333.662 314.316 334.894 314.316ZM334.894 315.296C333.592 315.296 332.542 315.884 332.542 317.228C332.542 318.418 333.452 319.216 334.894 319.216C336.336 319.216 337.232 318.404 337.232 317.228C337.232 315.926 336.224 315.296 334.894 315.296Z" fill="#717579"/>
<path d="M373.876 320V311.04H372.532V309.878H375.164V320H373.876ZM379.2 314.736C378.164 314.33 377.576 313.546 377.576 312.412C377.576 310.928 378.696 309.724 380.894 309.724C383.092 309.724 384.226 310.942 384.226 312.412C384.226 313.504 383.596 314.344 382.602 314.736C383.75 315.086 384.492 316.01 384.492 317.27C384.492 319.104 383.036 320.28 380.894 320.28C378.766 320.28 377.324 319.104 377.324 317.27C377.324 315.996 378.066 315.072 379.2 314.736ZM380.894 314.316C382.14 314.316 382.994 313.616 382.994 312.566C382.994 311.404 382.168 310.788 380.894 310.788C379.648 310.788 378.808 311.39 378.808 312.58C378.808 313.63 379.662 314.316 380.894 314.316ZM380.894 315.296C379.592 315.296 378.542 315.884 378.542 317.228C378.542 318.418 379.452 319.216 380.894 319.216C382.336 319.216 383.232 318.404 383.232 317.228C383.232 315.926 382.224 315.296 380.894 315.296Z" fill="#717579"/>
<path d="M419.876 320V311.04H418.532V309.878H421.164V320H419.876ZM425.2 314.736C424.164 314.33 423.576 313.546 423.576 312.412C423.576 310.928 424.696 309.724 426.894 309.724C429.092 309.724 430.226 310.942 430.226 312.412C430.226 313.504 429.596 314.344 428.602 314.736C429.75 315.086 430.492 316.01 430.492 317.27C430.492 319.104 429.036 320.28 426.894 320.28C424.766 320.28 423.324 319.104 423.324 317.27C423.324 315.996 424.066 315.072 425.2 314.736ZM426.894 314.316C428.14 314.316 428.994 313.616 428.994 312.566C428.994 311.404 428.168 310.788 426.894 310.788C425.648 310.788 424.808 311.39 424.808 312.58C424.808 313.63 425.662 314.316 426.894 314.316ZM426.894 315.296C425.592 315.296 424.542 315.884 424.542 317.228C424.542 318.418 425.452 319.216 426.894 319.216C428.336 319.216 429.232 318.404 429.232 317.228C429.232 315.926 428.224 315.296 426.894 315.296Z" fill="#717579"/>
<path d="M465.876 320V311.04H464.532V309.878H467.164V320H465.876ZM471.2 314.736C470.164 314.33 469.576 313.546 469.576 312.412C469.576 310.928 470.696 309.724 472.894 309.724C475.092 309.724 476.226 310.942 476.226 312.412C476.226 313.504 475.596 314.344 474.602 314.736C475.75 315.086 476.492 316.01 476.492 317.27C476.492 319.104 475.036 320.28 472.894 320.28C470.766 320.28 469.324 319.104 469.324 317.27C469.324 315.996 470.066 315.072 471.2 314.736ZM472.894 314.316C474.14 314.316 474.994 313.616 474.994 312.566C474.994 311.404 474.168 310.788 472.894 310.788C471.648 310.788 470.808 311.39 470.808 312.58C470.808 313.63 471.662 314.316 472.894 314.316ZM472.894 315.296C471.592 315.296 470.542 315.884 470.542 317.228C470.542 318.418 471.452 319.216 472.894 319.216C474.336 319.216 475.232 318.404 475.232 317.228C475.232 315.926 474.224 315.296 472.894 315.296Z" fill="#717579"/>
<path d="M511.876 320V311.04H510.532V309.878H513.164V320H511.876ZM517.2 314.736C516.164 314.33 515.576 313.546 515.576 312.412C515.576 310.928 516.696 309.724 518.894 309.724C521.092 309.724 522.226 310.942 522.226 312.412C522.226 313.504 521.596 314.344 520.602 314.736C521.75 315.086 522.492 316.01 522.492 317.27C522.492 319.104 521.036 320.28 518.894 320.28C516.766 320.28 515.324 319.104 515.324 317.27C515.324 315.996 516.066 315.072 517.2 314.736ZM518.894 314.316C520.14 314.316 520.994 313.616 520.994 312.566C520.994 311.404 520.168 310.788 518.894 310.788C517.648 310.788 516.808 311.39 516.808 312.58C516.808 313.63 517.662 314.316 518.894 314.316ZM518.894 315.296C517.592 315.296 516.542 315.884 516.542 317.228C516.542 318.418 517.452 319.216 518.894 319.216C520.336 319.216 521.232 318.404 521.232 317.228C521.232 315.926 520.224 315.296 518.894 315.296Z" fill="#717579"/>
<path d="M557.876 320V311.04H556.532V309.878H559.164V320H557.876ZM563.2 314.736C562.164 314.33 561.576 313.546 561.576 312.412C561.576 310.928 562.696 309.724 564.894 309.724C567.092 309.724 568.226 310.942 568.226 312.412C568.226 313.504 567.596 314.344 566.602 314.736C567.75 315.086 568.492 316.01 568.492 317.27C568.492 319.104 567.036 320.28 564.894 320.28C562.766 320.28 561.324 319.104 561.324 317.27C561.324 315.996 562.066 315.072 563.2 314.736ZM564.894 314.316C566.14 314.316 566.994 313.616 566.994 312.566C566.994 311.404 566.168 310.788 564.894 310.788C563.648 310.788 562.808 311.39 562.808 312.58C562.808 313.63 563.662 314.316 564.894 314.316ZM564.894 315.296C563.592 315.296 562.542 315.884 562.542 317.228C562.542 318.418 563.452 319.216 564.894 319.216C566.336 319.216 567.232 318.404 567.232 317.228C567.232 315.926 566.224 315.296 564.894 315.296Z" fill="#717579"/>
<path d="M603.876 320V311.04H602.532V309.878H605.164V320H603.876ZM609.2 314.736C608.164 314.33 607.576 313.546 607.576 312.412C607.576 310.928 608.696 309.724 610.894 309.724C613.092 309.724 614.226 310.942 614.226 312.412C614.226 313.504 613.596 314.344 612.602 314.736C613.75 315.086 614.492 316.01 614.492 317.27C614.492 319.104 613.036 320.28 610.894 320.28C608.766 320.28 607.324 319.104 607.324 317.27C607.324 315.996 608.066 315.072 609.2 314.736ZM610.894 314.316C612.14 314.316 612.994 313.616 612.994 312.566C612.994 311.404 612.168 310.788 610.894 310.788C609.648 310.788 608.808 311.39 608.808 312.58C608.808 313.63 609.662 314.316 610.894 314.316ZM610.894 315.296C609.592 315.296 608.542 315.884 608.542 317.228C608.542 318.418 609.452 319.216 610.894 319.216C612.336 319.216 613.232 318.404 613.232 317.228C613.232 315.926 612.224 315.296 610.894 315.296Z" fill="#717579"/>
</svg>
