<svg width="1032" height="371" viewBox="0 0 1032 371" fill="none" xmlns="http://www.w3.org/2000/svg">
<rect x="-0.25" y="0.25" width="0.5" height="329.5" transform="matrix(-1 0 0 1 731.5 3)" stroke="#D7D7D7" stroke-width="0.5"/>
<rect x="-0.25" y="0.25" width="0.5" height="329.5" transform="matrix(-1 0 0 1 589.5 3)" stroke="#D7D7D7" stroke-width="0.5"/>
<rect x="-0.25" y="0.25" width="0.5" height="329.5" transform="matrix(-1 0 0 1 447.5 3)" stroke="#D7D7D7" stroke-width="0.5"/>
<rect width="0" height="330" transform="matrix(-1 0 0 1 306 3)" stroke="#D7D7D7"/>
<rect x="-0.25" y="0.25" width="0.5" height="329.5" transform="matrix(-1 0 0 1 164.5 3)" stroke="#D7D7D7" stroke-width="0.5"/>
<rect x="-0.25" y="0.25" width="0.5" height="329.5" transform="matrix(-1 0 0 1 22.5 3)" stroke="#D7D7D7" stroke-width="0.5"/>
<rect x="-0.25" y="0.25" width="0.5" height="329.5" transform="matrix(-1 0 0 1 873.5 3)" stroke="#D7D7D7" stroke-width="0.5"/>
<rect x="0.249986" y="0.249986" width="0.499972" height="923.5" transform="matrix(-4.37114e-08 1 1 4.37114e-08 16 130)" stroke="#D7D7D7" stroke-width="0.499972"/>
<rect x="0.499986" y="0.499986" width="0.999972" height="923" transform="matrix(-4.37114e-08 1 1 4.37114e-08 16 228)" stroke="#717579" stroke-width="0.999972" stroke-dasharray="2 4"/>
<rect x="0.249986" y="0.249986" width="0.499972" height="923.5" transform="matrix(-4.37114e-08 1 1 4.37114e-08 16 327)" stroke="#D7D7D7" stroke-width="0.499972"/>
<rect x="0.249986" y="0.249986" width="0.499972" height="923.5" transform="matrix(-4.37114e-08 1 1 4.37114e-08 16 32)" stroke="#D7D7D7" stroke-width="0.499972"/>
<path d="M970.925 92.672H971.933C972.089 93.572 972.665 94.1 973.673 94.1C974.945 94.1 975.629 93.236 975.593 90.692C975.245 91.424 974.381 91.844 973.445 91.844C971.849 91.844 970.661 90.848 970.661 89.012C970.661 87.356 971.645 86.156 973.517 86.156C975.869 86.156 976.553 87.812 976.553 90.5C976.553 93.392 975.893 95.012 973.613 95.012C971.885 95.012 971.045 93.944 970.925 92.672ZM973.625 90.92C974.669 90.92 975.461 90.236 975.461 89.072C975.461 87.896 974.789 87.068 973.541 87.068C972.413 87.068 971.705 87.836 971.705 88.988C971.705 90.104 972.329 90.92 973.625 90.92ZM977.32 96.716L978.196 93.488H979.396L978.052 96.716H977.32ZM986.311 88.388H985.303C985.135 87.548 984.643 87.056 983.659 87.056C982.279 87.056 981.535 88.004 981.547 90.584C981.919 89.732 982.867 89.252 983.899 89.252C985.519 89.252 986.611 90.32 986.611 92.144C986.611 93.728 985.675 95.024 983.779 95.024C981.211 95.024 980.599 93.176 980.599 90.548C980.599 87.824 981.475 86.144 983.671 86.144C985.327 86.144 986.167 87.176 986.311 88.388ZM983.671 90.176C982.675 90.176 981.679 90.764 981.679 92.06C981.679 93.212 982.351 94.112 983.719 94.112C984.847 94.112 985.555 93.356 985.555 92.18C985.555 90.956 984.919 90.176 983.671 90.176ZM988.084 90.572C988.084 88.088 988.708 86.192 991.108 86.192C993.496 86.192 994.12 88.088 994.12 90.572C994.12 93.092 993.496 95 991.108 95C988.708 95 988.084 93.092 988.084 90.572ZM993.04 90.572C993.04 88.772 992.812 87.188 991.108 87.188C989.392 87.188 989.164 88.772 989.164 90.572C989.164 92.444 989.392 94.004 991.108 94.004C992.812 94.004 993.04 92.444 993.04 90.572ZM995.619 90.572C995.619 88.088 996.243 86.192 998.643 86.192C1001.03 86.192 1001.65 88.088 1001.65 90.572C1001.65 93.092 1001.03 95 998.643 95C996.243 95 995.619 93.092 995.619 90.572ZM1000.58 90.572C1000.58 88.772 1000.35 87.188 998.643 87.188C996.927 87.188 996.699 88.772 996.699 90.572C996.699 92.444 996.927 94.004 998.643 94.004C1000.35 94.004 1000.58 92.444 1000.58 90.572ZM1004.4 94.328C1004.4 94.748 1004.08 95.072 1003.68 95.072C1003.26 95.072 1002.94 94.748 1002.94 94.328C1002.94 93.908 1003.26 93.584 1003.68 93.584C1004.08 93.584 1004.4 93.908 1004.4 94.328ZM1005.67 90.572C1005.67 88.088 1006.3 86.192 1008.7 86.192C1011.09 86.192 1011.71 88.088 1011.71 90.572C1011.71 93.092 1011.09 95 1008.7 95C1006.3 95 1005.67 93.092 1005.67 90.572ZM1010.63 90.572C1010.63 88.772 1010.4 87.188 1008.7 87.188C1006.98 87.188 1006.75 88.772 1006.75 90.572C1006.75 92.444 1006.98 94.004 1008.7 94.004C1010.4 94.004 1010.63 92.444 1010.63 90.572ZM1013.21 90.572C1013.21 88.088 1013.83 86.192 1016.23 86.192C1018.62 86.192 1019.24 88.088 1019.24 90.572C1019.24 93.092 1018.62 95 1016.23 95C1013.83 95 1013.21 93.092 1013.21 90.572ZM1018.16 90.572C1018.16 88.772 1017.94 87.188 1016.23 87.188C1014.52 87.188 1014.29 88.772 1014.29 90.572C1014.29 92.444 1014.52 94.004 1016.23 94.004C1017.94 94.004 1018.16 92.444 1018.16 90.572Z" fill="#717579"/>
<path d="M971.992 51.672H973C973.156 52.572 973.732 53.1 974.74 53.1C976.012 53.1 976.696 52.236 976.66 49.692C976.312 50.424 975.448 50.844 974.512 50.844C972.916 50.844 971.728 49.848 971.728 48.012C971.728 46.356 972.712 45.156 974.584 45.156C976.936 45.156 977.62 46.812 977.62 49.5C977.62 52.392 976.96 54.012 974.68 54.012C972.952 54.012 972.112 52.944 971.992 51.672ZM974.692 49.92C975.736 49.92 976.528 49.236 976.528 48.072C976.528 46.896 975.856 46.068 974.608 46.068C973.48 46.068 972.772 46.836 972.772 47.988C972.772 49.104 973.396 49.92 974.692 49.92ZM978.386 55.716L979.262 52.488H980.462L979.118 55.716H978.386ZM981.185 45.348H986.873V46.176L983.537 54H982.433L985.817 46.284H981.185V45.348ZM988.084 49.572C988.084 47.088 988.708 45.192 991.108 45.192C993.496 45.192 994.12 47.088 994.12 49.572C994.12 52.092 993.496 54 991.108 54C988.708 54 988.084 52.092 988.084 49.572ZM993.04 49.572C993.04 47.772 992.812 46.188 991.108 46.188C989.392 46.188 989.164 47.772 989.164 49.572C989.164 51.444 989.392 53.004 991.108 53.004C992.812 53.004 993.04 51.444 993.04 49.572ZM995.619 49.572C995.619 47.088 996.243 45.192 998.643 45.192C1001.03 45.192 1001.65 47.088 1001.65 49.572C1001.65 52.092 1001.03 54 998.643 54C996.243 54 995.619 52.092 995.619 49.572ZM1000.58 49.572C1000.58 47.772 1000.35 46.188 998.643 46.188C996.927 46.188 996.699 47.772 996.699 49.572C996.699 51.444 996.927 53.004 998.643 53.004C1000.35 53.004 1000.58 51.444 1000.58 49.572ZM1004.4 53.328C1004.4 53.748 1004.08 54.072 1003.68 54.072C1003.26 54.072 1002.94 53.748 1002.94 53.328C1002.94 52.908 1003.26 52.584 1003.68 52.584C1004.08 52.584 1004.4 52.908 1004.4 53.328ZM1005.67 49.572C1005.67 47.088 1006.3 45.192 1008.7 45.192C1011.09 45.192 1011.71 47.088 1011.71 49.572C1011.71 52.092 1011.09 54 1008.7 54C1006.3 54 1005.67 52.092 1005.67 49.572ZM1010.63 49.572C1010.63 47.772 1010.4 46.188 1008.7 46.188C1006.98 46.188 1006.75 47.772 1006.75 49.572C1006.75 51.444 1006.98 53.004 1008.7 53.004C1010.4 53.004 1010.63 51.444 1010.63 49.572ZM1013.21 49.572C1013.21 47.088 1013.83 45.192 1016.23 45.192C1018.62 45.192 1019.24 47.088 1019.24 49.572C1019.24 52.092 1018.62 54 1016.23 54C1013.83 54 1013.21 52.092 1013.21 49.572ZM1018.16 49.572C1018.16 47.772 1017.94 46.188 1016.23 46.188C1014.52 46.188 1014.29 47.772 1014.29 49.572C1014.29 51.444 1014.52 53.004 1016.23 53.004C1017.94 53.004 1018.16 51.444 1018.16 49.572Z" fill="#717579"/>
<path d="M970.972 10.672H971.98C972.136 11.572 972.712 12.1 973.72 12.1C974.992 12.1 975.676 11.236 975.64 8.692C975.292 9.424 974.428 9.844 973.492 9.844C971.896 9.844 970.708 8.848 970.708 7.012C970.708 5.356 971.692 4.156 973.564 4.156C975.916 4.156 976.6 5.812 976.6 8.5C976.6 11.392 975.94 13.012 973.66 13.012C971.932 13.012 971.092 11.944 970.972 10.672ZM973.672 8.92C974.716 8.92 975.508 8.236 975.508 7.072C975.508 5.896 974.836 5.068 973.588 5.068C972.46 5.068 971.752 5.836 971.752 6.988C971.752 8.104 972.376 8.92 973.672 8.92ZM977.367 14.716L978.243 11.488H979.443L978.099 14.716H977.367ZM982.098 8.488C981.21 8.14 980.706 7.468 980.706 6.496C980.706 5.224 981.666 4.192 983.55 4.192C985.434 4.192 986.406 5.236 986.406 6.496C986.406 7.432 985.866 8.152 985.014 8.488C985.998 8.788 986.634 9.58 986.634 10.66C986.634 12.232 985.386 13.24 983.55 13.24C981.726 13.24 980.49 12.232 980.49 10.66C980.49 9.568 981.126 8.776 982.098 8.488ZM983.55 8.128C984.618 8.128 985.35 7.528 985.35 6.628C985.35 5.632 984.642 5.104 983.55 5.104C982.482 5.104 981.762 5.62 981.762 6.64C981.762 7.54 982.494 8.128 983.55 8.128ZM983.55 8.968C982.434 8.968 981.534 9.472 981.534 10.624C981.534 11.644 982.314 12.328 983.55 12.328C984.786 12.328 985.554 11.632 985.554 10.624C985.554 9.508 984.69 8.968 983.55 8.968ZM988.084 8.572C988.084 6.088 988.708 4.192 991.108 4.192C993.496 4.192 994.12 6.088 994.12 8.572C994.12 11.092 993.496 13 991.108 13C988.708 13 988.084 11.092 988.084 8.572ZM993.04 8.572C993.04 6.772 992.812 5.188 991.108 5.188C989.392 5.188 989.164 6.772 989.164 8.572C989.164 10.444 989.392 12.004 991.108 12.004C992.812 12.004 993.04 10.444 993.04 8.572ZM995.619 8.572C995.619 6.088 996.243 4.192 998.643 4.192C1001.03 4.192 1001.65 6.088 1001.65 8.572C1001.65 11.092 1001.03 13 998.643 13C996.243 13 995.619 11.092 995.619 8.572ZM1000.58 8.572C1000.58 6.772 1000.35 5.188 998.643 5.188C996.927 5.188 996.699 6.772 996.699 8.572C996.699 10.444 996.927 12.004 998.643 12.004C1000.35 12.004 1000.58 10.444 1000.58 8.572ZM1004.4 12.328C1004.4 12.748 1004.08 13.072 1003.68 13.072C1003.26 13.072 1002.94 12.748 1002.94 12.328C1002.94 11.908 1003.26 11.584 1003.68 11.584C1004.08 11.584 1004.4 11.908 1004.4 12.328ZM1005.67 8.572C1005.67 6.088 1006.3 4.192 1008.7 4.192C1011.09 4.192 1011.71 6.088 1011.71 8.572C1011.71 11.092 1011.09 13 1008.7 13C1006.3 13 1005.67 11.092 1005.67 8.572ZM1010.63 8.572C1010.63 6.772 1010.4 5.188 1008.7 5.188C1006.98 5.188 1006.75 6.772 1006.75 8.572C1006.75 10.444 1006.98 12.004 1008.7 12.004C1010.4 12.004 1010.63 10.444 1010.63 8.572ZM1013.21 8.572C1013.21 6.088 1013.83 4.192 1016.23 4.192C1018.62 4.192 1019.24 6.088 1019.24 8.572C1019.24 11.092 1018.62 13 1016.23 13C1013.83 13 1013.21 11.092 1013.21 8.572ZM1018.16 8.572C1018.16 6.772 1017.94 5.188 1016.23 5.188C1014.52 5.188 1014.29 6.772 1014.29 8.572C1014.29 10.444 1014.52 12.004 1016.23 12.004C1017.94 12.004 1018.16 10.444 1018.16 8.572Z" fill="#717579"/>
<path d="M971.007 133.672H972.015C972.171 134.572 972.747 135.1 973.755 135.1C975.027 135.1 975.711 134.236 975.675 131.692C975.327 132.424 974.463 132.844 973.527 132.844C971.931 132.844 970.743 131.848 970.743 130.012C970.743 128.356 971.727 127.156 973.599 127.156C975.951 127.156 976.635 128.812 976.635 131.5C976.635 134.392 975.975 136.012 973.695 136.012C971.967 136.012 971.127 134.944 971.007 133.672ZM973.707 131.92C974.751 131.92 975.543 131.236 975.543 130.072C975.543 128.896 974.871 128.068 973.623 128.068C972.495 128.068 971.787 128.836 971.787 129.988C971.787 131.104 972.411 131.92 973.707 131.92ZM977.402 137.716L978.278 134.488H979.478L978.134 137.716H977.402ZM980.861 127.312H986.081V128.272H981.869V131.008C982.229 130.516 982.997 130.132 983.849 130.132C985.961 130.132 986.633 131.656 986.633 133C986.633 134.68 985.697 136.024 983.669 136.024C981.941 136.024 980.897 135.052 980.681 133.648H981.749C981.953 134.56 982.661 135.1 983.681 135.1C985.001 135.1 985.589 134.212 985.589 133.024C985.589 131.788 984.953 131.068 983.693 131.068C982.817 131.068 982.181 131.524 981.893 132.208H980.861V127.312ZM988.084 131.572C988.084 129.088 988.708 127.192 991.108 127.192C993.496 127.192 994.12 129.088 994.12 131.572C994.12 134.092 993.496 136 991.108 136C988.708 136 988.084 134.092 988.084 131.572ZM993.04 131.572C993.04 129.772 992.812 128.188 991.108 128.188C989.392 128.188 989.164 129.772 989.164 131.572C989.164 133.444 989.392 135.004 991.108 135.004C992.812 135.004 993.04 133.444 993.04 131.572ZM995.619 131.572C995.619 129.088 996.243 127.192 998.643 127.192C1001.03 127.192 1001.65 129.088 1001.65 131.572C1001.65 134.092 1001.03 136 998.643 136C996.243 136 995.619 134.092 995.619 131.572ZM1000.58 131.572C1000.58 129.772 1000.35 128.188 998.643 128.188C996.927 128.188 996.699 129.772 996.699 131.572C996.699 133.444 996.927 135.004 998.643 135.004C1000.35 135.004 1000.58 133.444 1000.58 131.572ZM1004.4 135.328C1004.4 135.748 1004.08 136.072 1003.68 136.072C1003.26 136.072 1002.94 135.748 1002.94 135.328C1002.94 134.908 1003.26 134.584 1003.68 134.584C1004.08 134.584 1004.4 134.908 1004.4 135.328ZM1005.67 131.572C1005.67 129.088 1006.3 127.192 1008.7 127.192C1011.09 127.192 1011.71 129.088 1011.71 131.572C1011.71 134.092 1011.09 136 1008.7 136C1006.3 136 1005.67 134.092 1005.67 131.572ZM1010.63 131.572C1010.63 129.772 1010.4 128.188 1008.7 128.188C1006.98 128.188 1006.75 129.772 1006.75 131.572C1006.75 133.444 1006.98 135.004 1008.7 135.004C1010.4 135.004 1010.63 133.444 1010.63 131.572ZM1013.21 131.572C1013.21 129.088 1013.83 127.192 1016.23 127.192C1018.62 127.192 1019.24 129.088 1019.24 131.572C1019.24 134.092 1018.62 136 1016.23 136C1013.83 136 1013.21 134.092 1013.21 131.572ZM1018.16 131.572C1018.16 129.772 1017.94 128.188 1016.23 128.188C1014.52 128.188 1014.29 129.772 1014.29 131.572C1014.29 133.444 1014.52 135.004 1016.23 135.004C1017.94 135.004 1018.16 133.444 1018.16 131.572Z" fill="#717579"/>
<path d="M970.995 174.672H972.003C972.159 175.572 972.735 176.1 973.743 176.1C975.015 176.1 975.699 175.236 975.663 172.692C975.315 173.424 974.451 173.844 973.515 173.844C971.919 173.844 970.731 172.848 970.731 171.012C970.731 169.356 971.715 168.156 973.587 168.156C975.939 168.156 976.623 169.812 976.623 172.5C976.623 175.392 975.963 177.012 973.683 177.012C971.955 177.012 971.115 175.944 970.995 174.672ZM973.695 172.92C974.739 172.92 975.531 172.236 975.531 171.072C975.531 169.896 974.859 169.068 973.611 169.068C972.483 169.068 971.775 169.836 971.775 170.988C971.775 172.104 972.399 172.92 973.695 172.92ZM977.39 178.716L978.266 175.488H979.466L978.122 178.716H977.39ZM984.713 177V175.068H980.273V174.24L984.485 168.408H985.793V174.12H986.993V175.068H985.793V177H984.713ZM981.533 174.12H984.761V169.548L981.533 174.12ZM988.084 172.572C988.084 170.088 988.708 168.192 991.108 168.192C993.496 168.192 994.12 170.088 994.12 172.572C994.12 175.092 993.496 177 991.108 177C988.708 177 988.084 175.092 988.084 172.572ZM993.04 172.572C993.04 170.772 992.812 169.188 991.108 169.188C989.392 169.188 989.164 170.772 989.164 172.572C989.164 174.444 989.392 176.004 991.108 176.004C992.812 176.004 993.04 174.444 993.04 172.572ZM995.619 172.572C995.619 170.088 996.243 168.192 998.643 168.192C1001.03 168.192 1001.65 170.088 1001.65 172.572C1001.65 175.092 1001.03 177 998.643 177C996.243 177 995.619 175.092 995.619 172.572ZM1000.58 172.572C1000.58 170.772 1000.35 169.188 998.643 169.188C996.927 169.188 996.699 170.772 996.699 172.572C996.699 174.444 996.927 176.004 998.643 176.004C1000.35 176.004 1000.58 174.444 1000.58 172.572ZM1004.4 176.328C1004.4 176.748 1004.08 177.072 1003.68 177.072C1003.26 177.072 1002.94 176.748 1002.94 176.328C1002.94 175.908 1003.26 175.584 1003.68 175.584C1004.08 175.584 1004.4 175.908 1004.4 176.328ZM1005.67 172.572C1005.67 170.088 1006.3 168.192 1008.7 168.192C1011.09 168.192 1011.71 170.088 1011.71 172.572C1011.71 175.092 1011.09 177 1008.7 177C1006.3 177 1005.67 175.092 1005.67 172.572ZM1010.63 172.572C1010.63 170.772 1010.4 169.188 1008.7 169.188C1006.98 169.188 1006.75 170.772 1006.75 172.572C1006.75 174.444 1006.98 176.004 1008.7 176.004C1010.4 176.004 1010.63 174.444 1010.63 172.572ZM1013.21 172.572C1013.21 170.088 1013.83 168.192 1016.23 168.192C1018.62 168.192 1019.24 170.088 1019.24 172.572C1019.24 175.092 1018.62 177 1016.23 177C1013.83 177 1013.21 175.092 1013.21 172.572ZM1018.16 172.572C1018.16 170.772 1017.94 169.188 1016.23 169.188C1014.52 169.188 1014.29 170.772 1014.29 172.572C1014.29 174.444 1014.52 176.004 1016.23 176.004C1017.94 176.004 1018.16 174.444 1018.16 172.572Z" fill="#717579"/>
<path d="M971.476 215.672H972.484C972.64 216.572 973.216 217.1 974.224 217.1C975.496 217.1 976.18 216.236 976.144 213.692C975.796 214.424 974.932 214.844 973.996 214.844C972.4 214.844 971.212 213.848 971.212 212.012C971.212 210.356 972.196 209.156 974.068 209.156C976.42 209.156 977.104 210.812 977.104 213.5C977.104 216.392 976.444 218.012 974.164 218.012C972.436 218.012 971.596 216.944 971.476 215.672ZM974.176 213.92C975.22 213.92 976.012 213.236 976.012 212.072C976.012 210.896 975.34 210.068 974.092 210.068C972.964 210.068 972.256 210.836 972.256 211.988C972.256 213.104 972.88 213.92 974.176 213.92ZM977.871 219.716L978.747 216.488H979.947L978.603 219.716H977.871ZM980.993 211.508C981.101 210.02 982.229 209.156 983.837 209.156C985.529 209.156 986.453 210.14 986.453 211.388C986.453 212.384 985.829 213.164 984.917 213.368V213.428C985.925 213.668 986.609 214.412 986.609 215.66C986.609 217.004 985.673 218.06 983.861 218.06C982.217 218.06 980.993 217.184 980.861 215.504H981.917C982.025 216.428 982.697 217.136 983.849 217.136C985.013 217.136 985.565 216.452 985.565 215.564C985.565 214.34 984.713 213.872 983.153 213.872H982.877V212.96H983.165C984.617 212.948 985.397 212.504 985.397 211.496C985.397 210.668 984.845 210.092 983.801 210.092C982.781 210.092 982.169 210.668 982.061 211.508H980.993ZM988.084 213.572C988.084 211.088 988.708 209.192 991.108 209.192C993.496 209.192 994.12 211.088 994.12 213.572C994.12 216.092 993.496 218 991.108 218C988.708 218 988.084 216.092 988.084 213.572ZM993.04 213.572C993.04 211.772 992.812 210.188 991.108 210.188C989.392 210.188 989.164 211.772 989.164 213.572C989.164 215.444 989.392 217.004 991.108 217.004C992.812 217.004 993.04 215.444 993.04 213.572ZM995.619 213.572C995.619 211.088 996.243 209.192 998.643 209.192C1001.03 209.192 1001.65 211.088 1001.65 213.572C1001.65 216.092 1001.03 218 998.643 218C996.243 218 995.619 216.092 995.619 213.572ZM1000.58 213.572C1000.58 211.772 1000.35 210.188 998.643 210.188C996.927 210.188 996.699 211.772 996.699 213.572C996.699 215.444 996.927 217.004 998.643 217.004C1000.35 217.004 1000.58 215.444 1000.58 213.572ZM1004.4 217.328C1004.4 217.748 1004.08 218.072 1003.68 218.072C1003.26 218.072 1002.94 217.748 1002.94 217.328C1002.94 216.908 1003.26 216.584 1003.68 216.584C1004.08 216.584 1004.4 216.908 1004.4 217.328ZM1005.67 213.572C1005.67 211.088 1006.3 209.192 1008.7 209.192C1011.09 209.192 1011.71 211.088 1011.71 213.572C1011.71 216.092 1011.09 218 1008.7 218C1006.3 218 1005.67 216.092 1005.67 213.572ZM1010.63 213.572C1010.63 211.772 1010.4 210.188 1008.7 210.188C1006.98 210.188 1006.75 211.772 1006.75 213.572C1006.75 215.444 1006.98 217.004 1008.7 217.004C1010.4 217.004 1010.63 215.444 1010.63 213.572ZM1013.21 213.572C1013.21 211.088 1013.83 209.192 1016.23 209.192C1018.62 209.192 1019.24 211.088 1019.24 213.572C1019.24 216.092 1018.62 218 1016.23 218C1013.83 218 1013.21 216.092 1013.21 213.572ZM1018.16 213.572C1018.16 211.772 1017.94 210.188 1016.23 210.188C1014.52 210.188 1014.29 211.772 1014.29 213.572C1014.29 215.444 1014.52 217.004 1016.23 217.004C1017.94 217.004 1018.16 215.444 1018.16 213.572Z" fill="#717579"/>
<path d="M971.64 256.672H972.648C972.804 257.572 973.38 258.1 974.388 258.1C975.66 258.1 976.344 257.236 976.308 254.692C975.96 255.424 975.096 255.844 974.16 255.844C972.564 255.844 971.376 254.848 971.376 253.012C971.376 251.356 972.36 250.156 974.232 250.156C976.584 250.156 977.268 251.812 977.268 254.5C977.268 257.392 976.608 259.012 974.328 259.012C972.6 259.012 971.76 257.944 971.64 256.672ZM974.34 254.92C975.384 254.92 976.176 254.236 976.176 253.072C976.176 251.896 975.504 251.068 974.256 251.068C973.128 251.068 972.42 251.836 972.42 252.988C972.42 254.104 973.044 254.92 974.34 254.92ZM978.035 260.716L978.911 257.488H980.111L978.767 260.716H978.035ZM981.05 258.904V258.124C983.33 256.288 985.49 254.56 985.49 252.784C985.49 251.824 985.07 251.104 983.894 251.104C982.766 251.104 982.19 251.884 982.142 252.976H981.086C981.158 251.128 982.322 250.168 983.882 250.168C985.514 250.168 986.57 251.128 986.57 252.736C986.57 254.896 984.242 256.732 982.694 257.992H986.822V258.904H981.05ZM988.084 254.572C988.084 252.088 988.708 250.192 991.108 250.192C993.496 250.192 994.12 252.088 994.12 254.572C994.12 257.092 993.496 259 991.108 259C988.708 259 988.084 257.092 988.084 254.572ZM993.04 254.572C993.04 252.772 992.812 251.188 991.108 251.188C989.392 251.188 989.164 252.772 989.164 254.572C989.164 256.444 989.392 258.004 991.108 258.004C992.812 258.004 993.04 256.444 993.04 254.572ZM995.619 254.572C995.619 252.088 996.243 250.192 998.643 250.192C1001.03 250.192 1001.65 252.088 1001.65 254.572C1001.65 257.092 1001.03 259 998.643 259C996.243 259 995.619 257.092 995.619 254.572ZM1000.58 254.572C1000.58 252.772 1000.35 251.188 998.643 251.188C996.927 251.188 996.699 252.772 996.699 254.572C996.699 256.444 996.927 258.004 998.643 258.004C1000.35 258.004 1000.58 256.444 1000.58 254.572ZM1004.4 258.328C1004.4 258.748 1004.08 259.072 1003.68 259.072C1003.26 259.072 1002.94 258.748 1002.94 258.328C1002.94 257.908 1003.26 257.584 1003.68 257.584C1004.08 257.584 1004.4 257.908 1004.4 258.328ZM1005.67 254.572C1005.67 252.088 1006.3 250.192 1008.7 250.192C1011.09 250.192 1011.71 252.088 1011.71 254.572C1011.71 257.092 1011.09 259 1008.7 259C1006.3 259 1005.67 257.092 1005.67 254.572ZM1010.63 254.572C1010.63 252.772 1010.4 251.188 1008.7 251.188C1006.98 251.188 1006.75 252.772 1006.75 254.572C1006.75 256.444 1006.98 258.004 1008.7 258.004C1010.4 258.004 1010.63 256.444 1010.63 254.572ZM1013.21 254.572C1013.21 252.088 1013.83 250.192 1016.23 250.192C1018.62 250.192 1019.24 252.088 1019.24 254.572C1019.24 257.092 1018.62 259 1016.23 259C1013.83 259 1013.21 257.092 1013.21 254.572ZM1018.16 254.572C1018.16 252.772 1017.94 251.188 1016.23 251.188C1014.52 251.188 1014.29 252.772 1014.29 254.572C1014.29 256.444 1014.52 258.004 1016.23 258.004C1017.94 258.004 1018.16 256.444 1018.16 254.572Z" fill="#717579"/>
<path d="M974.699 298.672H975.707C975.863 299.572 976.439 300.1 977.447 300.1C978.719 300.1 979.403 299.236 979.367 296.692C979.019 297.424 978.155 297.844 977.219 297.844C975.623 297.844 974.435 296.848 974.435 295.012C974.435 293.356 975.419 292.156 977.291 292.156C979.643 292.156 980.327 293.812 980.327 296.5C980.327 299.392 979.667 301.012 977.387 301.012C975.659 301.012 974.819 299.944 974.699 298.672ZM977.399 296.92C978.443 296.92 979.235 296.236 979.235 295.072C979.235 293.896 978.563 293.068 977.315 293.068C976.187 293.068 975.479 293.836 975.479 294.988C975.479 296.104 976.103 296.92 977.399 296.92ZM981.093 302.716L981.969 299.488H983.169L981.825 302.716H981.093ZM985.104 301V293.32H983.952V292.324H986.208V301H985.104ZM988.084 296.572C988.084 294.088 988.708 292.192 991.108 292.192C993.496 292.192 994.12 294.088 994.12 296.572C994.12 299.092 993.496 301 991.108 301C988.708 301 988.084 299.092 988.084 296.572ZM993.04 296.572C993.04 294.772 992.812 293.188 991.108 293.188C989.392 293.188 989.164 294.772 989.164 296.572C989.164 298.444 989.392 300.004 991.108 300.004C992.812 300.004 993.04 298.444 993.04 296.572ZM995.619 296.572C995.619 294.088 996.243 292.192 998.643 292.192C1001.03 292.192 1001.65 294.088 1001.65 296.572C1001.65 299.092 1001.03 301 998.643 301C996.243 301 995.619 299.092 995.619 296.572ZM1000.58 296.572C1000.58 294.772 1000.35 293.188 998.643 293.188C996.927 293.188 996.699 294.772 996.699 296.572C996.699 298.444 996.927 300.004 998.643 300.004C1000.35 300.004 1000.58 298.444 1000.58 296.572ZM1004.4 300.328C1004.4 300.748 1004.08 301.072 1003.68 301.072C1003.26 301.072 1002.94 300.748 1002.94 300.328C1002.94 299.908 1003.26 299.584 1003.68 299.584C1004.08 299.584 1004.4 299.908 1004.4 300.328ZM1005.67 296.572C1005.67 294.088 1006.3 292.192 1008.7 292.192C1011.09 292.192 1011.71 294.088 1011.71 296.572C1011.71 299.092 1011.09 301 1008.7 301C1006.3 301 1005.67 299.092 1005.67 296.572ZM1010.63 296.572C1010.63 294.772 1010.4 293.188 1008.7 293.188C1006.98 293.188 1006.75 294.772 1006.75 296.572C1006.75 298.444 1006.98 300.004 1008.7 300.004C1010.4 300.004 1010.63 298.444 1010.63 296.572ZM1013.21 296.572C1013.21 294.088 1013.83 292.192 1016.23 292.192C1018.62 292.192 1019.24 294.088 1019.24 296.572C1019.24 299.092 1018.62 301 1016.23 301C1013.83 301 1013.21 299.092 1013.21 296.572ZM1018.16 296.572C1018.16 294.772 1017.94 293.188 1016.23 293.188C1014.52 293.188 1014.29 294.772 1014.29 296.572C1014.29 298.444 1014.52 300.004 1016.23 300.004C1017.94 300.004 1018.16 298.444 1018.16 296.572Z" fill="#717579"/>
<rect width="12" height="24" rx="2" transform="matrix(-1 0 0 1 946 26)" fill="#FF3B30"/>
<rect width="2" height="79" rx="1" transform="matrix(-1 0 0 1 941 18)" fill="#FF3B30"/>
<rect width="12" height="44" rx="2" transform="matrix(-1 0 0 1 911 35)" fill="#34C759"/>
<rect width="2" height="85" rx="1" transform="matrix(-1 0 0 1 906 18)" fill="#34C759"/>
<rect x="864" y="53" width="12" height="42" rx="2" fill="#34C759"/>
<rect width="2" height="54" rx="1" transform="matrix(-1 0 0 1 871 49)" fill="#34C759"/>
<rect width="12" height="22" rx="2" transform="matrix(-1 0 0 1 841 81)" fill="#FF3B30"/>
<rect width="2" height="51" rx="1" transform="matrix(-1 0 0 1 836 63)" fill="#FF3B30"/>
<rect x="794" y="63" width="12" height="65" rx="2" fill="#34C759"/>
<rect width="2" height="90" rx="1" transform="matrix(-1 0 0 1 801 59)" fill="#34C759"/>
<rect width="12" height="16" rx="2" transform="matrix(-1 0 0 1 771 127)" fill="#FF3B30"/>
<rect width="2" height="42" rx="1" transform="matrix(-1 0 0 1 766 122)" fill="#FF3B30"/>
<rect x="724" y="111" width="12" height="24" rx="2" fill="#FF3B30"/>
<rect width="2" height="44" rx="1" transform="matrix(-1 0 0 1 731 104)" fill="#FF3B30"/>
<rect width="12" height="36" rx="2" transform="matrix(-1 0 0 1 701 89)" fill="#FF3B30"/>
<rect width="2" height="71" rx="1" transform="matrix(-1 0 0 1 696 69)" fill="#FF3B30"/>
<rect x="654" y="87" width="12" height="14" rx="2" fill="#FF3B30"/>
<rect width="2" height="41" rx="1" transform="matrix(-1 0 0 1 661 74)" fill="#FF3B30"/>
<rect width="12" height="48" rx="2" transform="matrix(-1 0 0 1 631 59)" fill="#FF3B30"/>
<rect width="2" height="85" rx="1" transform="matrix(-1 0 0 1 626 41)" fill="#FF3B30"/>
<rect x="584" y="57" width="12" height="24" rx="2" fill="#34C759"/>
<rect width="2" height="51" rx="1" transform="matrix(-1 0 0 1 591 34)" fill="#34C759"/>
<rect width="12" height="47" rx="2" transform="matrix(-1 0 0 1 561 38)" fill="#FF3B30"/>
<rect width="2" height="69" rx="1" transform="matrix(-1 0 0 1 556 18)" fill="#FF3B30"/>
<rect x="514" y="22" width="12" height="28" rx="2" fill="#34C759"/>
<rect width="2" height="57" rx="1" transform="matrix(-1 0 0 1 521 18)" fill="#34C759"/>
<rect width="12" height="59" rx="2" transform="matrix(-1 0 0 1 491 36)" fill="#FF3B30"/>
<rect width="2" height="79" rx="1" transform="matrix(-1 0 0 1 486 18)" fill="#FF3B30"/>
<rect x="444" y="52" width="12" height="66" rx="2" fill="#34C759"/>
<rect width="2" height="139" rx="1" transform="matrix(-1 0 0 1 451 4)" fill="#34C759"/>
<rect width="12" height="69" rx="2" transform="matrix(-1 0 0 1 421 78)" fill="#FF3B30"/>
<rect width="2" height="117" rx="1" transform="matrix(-1 0 0 1 416 50)" fill="#FF3B30"/>
<rect x="374" y="130" width="12" height="9" rx="2" fill="#34C759"/>
<rect width="2" height="44" rx="1" transform="matrix(-1 0 0 1 381 109)" fill="#34C759"/>
<rect width="12" height="63" rx="2" transform="matrix(-1 0 0 1 351 105)" fill="#FF3B30"/>
<rect width="2" height="89" rx="1" transform="matrix(-1 0 0 1 346 86)" fill="#FF3B30"/>
<rect x="304" y="136" width="12" height="36" rx="2" fill="#FF3B30"/>
<rect width="2" height="72" rx="1" transform="matrix(-1 0 0 1 311 117)" fill="#FF3B30"/>
<rect width="12" height="56" rx="2" transform="matrix(-1 0 0 1 281 130)" fill="#FF3B30"/>
<rect width="2" height="85" rx="1" transform="matrix(-1 0 0 1 276 122)" fill="#FF3B30"/>
<rect x="234" y="108" width="12" height="64" rx="2" fill="#34C759"/>
<rect width="2" height="89" rx="1" transform="matrix(-1 0 0 1 241 103)" fill="#34C759"/>
<rect width="12" height="38" rx="2" transform="matrix(-1 0 0 1 211 112)" fill="#FF3B30"/>
<rect width="2" height="85" rx="1" transform="matrix(-1 0 0 1 206 85)" fill="#FF3B30"/>
<rect x="164" y="83" width="12" height="48" rx="2" fill="#34C759"/>
<rect width="2" height="89" rx="1" transform="matrix(-1 0 0 1 171 64)" fill="#34C759"/>
<rect width="12" height="50" rx="2" transform="matrix(-1 0 0 1 141 60)" fill="#34C759"/>
<rect width="2" height="88" rx="1" transform="matrix(-1 0 0 1 136 40)" fill="#34C759"/>
<rect x="94" y="53" width="12" height="44" rx="2" fill="#34C759"/>
<rect width="2" height="61" rx="1" transform="matrix(-1 0 0 1 101 43)" fill="#34C759"/>
<rect width="12" height="47" rx="2" transform="matrix(-1 0 0 1 71 70)" fill="#FF3B30"/>
<rect width="2" height="75" rx="1" transform="matrix(-1 0 0 1 66 53)" fill="#FF3B30"/>
<rect x="24" y="82" width="12" height="63" rx="2" fill="#34C759"/>
<rect width="2" height="132" rx="1" transform="matrix(-1 0 0 1 31 32)" fill="#34C759"/>
<rect x="478" y="266" width="8" height="61" fill="#34C759"/>
<rect x="520" y="315" width="8" height="12" fill="#34C759"/>
<rect x="436" y="317" width="8" height="10" fill="#FF3B30"/>
<rect x="394" y="306" width="8" height="21" fill="#FF3B30"/>
<rect x="352" y="315" width="8" height="12" fill="#34C759"/>
<rect width="8" height="10" transform="matrix(1 0 0 -1 919 327)" fill="#34C759"/>
<rect x="310" y="293" width="8" height="34" fill="#34C759"/>
<rect width="8" height="29" transform="matrix(1 0 0 -1 877 327)" fill="#34C759"/>
<rect x="268" y="315" width="8" height="12" fill="#34C759"/>
<rect width="8" height="10" transform="matrix(1 0 0 -1 835 327)" fill="#34C759"/>
<rect x="226" y="295" width="8" height="32" fill="#FF3B30"/>
<rect width="8" height="27" transform="matrix(1 0 0 -1 793 327)" fill="#FF3B30"/>
<rect x="184" y="306" width="8" height="21" fill="#FF3B30"/>
<rect width="8" height="18" transform="matrix(1 0 0 -1 751 327)" fill="#FF3B30"/>
<rect x="142" y="315" width="8" height="12" fill="#34C759"/>
<rect width="8" height="10" transform="matrix(1 0 0 -1 709 327)" fill="#34C759"/>
<rect x="100" y="280" width="8" height="47" fill="#34C759"/>
<rect width="8" height="40" transform="matrix(1 0 0 -1 667 327)" fill="#34C759"/>
<rect x="58" y="293" width="8" height="34" fill="#34C759"/>
<rect width="8" height="29" transform="matrix(1 0 0 -1 625 327)" fill="#34C759"/>
<rect x="16" y="304" width="8" height="23" fill="#34C759"/>
<rect width="8" height="20" transform="matrix(1 0 0 -1 583 327)" fill="#34C759"/>
<rect width="8" height="21" transform="matrix(-1 0 0 1 87 306)" fill="#34C759"/>
<rect x="654" y="327" width="8" height="18" transform="rotate(180 654 327)" fill="#34C759"/>
<rect width="8" height="53" transform="matrix(-1 0 0 1 45 274)" fill="#FF3B30"/>
<rect x="612" y="327" width="8" height="45" transform="rotate(180 612 327)" fill="#FF3B30"/>
<rect width="8" height="37" transform="matrix(-1 0 0 1 129 290)" fill="#FF3B30"/>
<rect x="696" y="327" width="8" height="32" transform="rotate(180 696 327)" fill="#FF3B30"/>
<rect width="8" height="61" transform="matrix(-1 0 0 1 171 266)" fill="#FF3B30"/>
<rect x="738" y="327" width="8" height="52" transform="rotate(180 738 327)" fill="#FF3B30"/>
<rect width="8" height="3" transform="matrix(-1 0 0 1 213 324)" fill="#FF3B30"/>
<rect x="780" y="327" width="8" height="3" transform="rotate(180 780 327)" fill="#FF3B30"/>
<rect width="8" height="41" transform="matrix(-1 0 0 1 255 286)" fill="#FF3B30"/>
<rect x="822" y="327" width="8" height="35" transform="rotate(180 822 327)" fill="#FF3B30"/>
<rect width="8" height="33" transform="matrix(-1 0 0 1 297 294)" fill="#FF3B30"/>
<rect x="864" y="327" width="8" height="28" transform="rotate(180 864 327)" fill="#FF3B30"/>
<rect width="8" height="47" transform="matrix(-1 0 0 1 339 280)" fill="#FF3B30"/>
<rect x="906" y="327" width="8" height="40" transform="rotate(180 906 327)" fill="#FF3B30"/>
<rect width="8" height="28" transform="matrix(-1 0 0 1 381 299)" fill="#FF3B30"/>
<rect width="8" height="47" transform="matrix(-1 0 0 1 423 280)" fill="#FF3B30"/>
<rect width="8" height="21" transform="matrix(-1 0 0 1 465 306)" fill="#FF3B30"/>
<rect width="8" height="42" transform="matrix(-1 0 0 1 507 285)" fill="#34C759"/>
<rect width="8" height="32" transform="matrix(-1 0 0 1 549 295)" fill="#34C759"/>
<rect width="8" height="52" transform="matrix(-1 0 0 1 570 275)" fill="#FF3B30"/>
<path d="M29.6738 242.007L103.415 202.115C114.8 195.957 128.555 193.999 142.467 196.557L291.04 223.87C302.089 225.901 313.094 225.093 322.914 221.529L493.242 159.71C501.761 156.618 511.189 155.594 520.786 156.717L747.384 183.249C758.472 184.547 769.306 182.975 778.76 178.698L923.96 113" stroke="#FF3B30"/>
<path d="M20.748 221.949L101.127 185.34C113.269 179.81 127.004 178.496 140.188 181.604L284.475 215.612C294.94 218.079 305.801 217.771 315.971 214.719L496.431 160.555C505.253 157.907 514.613 157.319 523.801 158.835L745.845 195.472C756.462 197.224 767.285 196.162 777.222 192.393L932.988 133.311" stroke="#34C759"/>
<path d="M0.612 365.904V365.124C2.892 363.288 5.052 361.56 5.052 359.784C5.052 358.824 4.632 358.104 3.456 358.104C2.328 358.104 1.752 358.884 1.704 359.976H0.648C0.72 358.128 1.884 357.168 3.444 357.168C5.076 357.168 6.132 358.128 6.132 359.736C6.132 361.896 3.804 363.732 2.256 364.992H6.384V365.904H0.612ZM8.89434 365.328C8.89434 365.748 8.57034 366.072 8.17434 366.072C7.75434 366.072 7.43034 365.748 7.43034 365.328C7.43034 364.908 7.75434 364.584 8.17434 364.584C8.57034 364.584 8.89434 364.908 8.89434 365.328ZM8.89434 360.192C8.89434 360.612 8.57034 360.936 8.17434 360.936C7.75434 360.936 7.43034 360.612 7.43034 360.192C7.43034 359.772 7.75434 359.448 8.17434 359.448C8.57034 359.448 8.89434 359.772 8.89434 360.192ZM10.201 361.572C10.201 359.088 10.825 357.192 13.225 357.192C15.613 357.192 16.237 359.088 16.237 361.572C16.237 364.092 15.613 366 13.225 366C10.825 366 10.201 364.092 10.201 361.572ZM15.157 361.572C15.157 359.772 14.929 358.188 13.225 358.188C11.509 358.188 11.281 359.772 11.281 361.572C11.281 363.444 11.509 365.004 13.225 365.004C14.929 365.004 15.157 363.444 15.157 361.572ZM17.7362 361.572C17.7362 359.088 18.3602 357.192 20.7602 357.192C23.1482 357.192 23.7722 359.088 23.7722 361.572C23.7722 364.092 23.1482 366 20.7602 366C18.3602 366 17.7362 364.092 17.7362 361.572ZM22.6922 361.572C22.6922 359.772 22.4642 358.188 20.7602 358.188C19.0442 358.188 18.8162 359.772 18.8162 361.572C18.8162 363.444 19.0442 365.004 20.7602 365.004C22.4642 365.004 22.6922 363.444 22.6922 361.572ZM26.5433 361.608H28.1513C29.3993 361.608 29.9273 361.02 29.9273 360.084C29.9273 359.112 29.3993 358.536 28.1513 358.536H26.5433V361.608ZM31.0433 360.084C31.0433 361.356 30.2273 362.508 28.1513 362.508H26.5433V366H25.4513V357.636H28.1513C30.1193 357.636 31.0433 358.716 31.0433 360.084ZM32.4006 366V357.696H33.5766L36.6486 364.56L39.7206 357.696H40.8846V366H39.7926V359.808L37.0326 366H36.2646L33.4926 359.796V366H32.4006Z" fill="#717579"/>
<path d="M140.72 359.508C140.828 358.02 141.956 357.156 143.564 357.156C145.256 357.156 146.18 358.14 146.18 359.388C146.18 360.384 145.556 361.164 144.644 361.368V361.428C145.652 361.668 146.336 362.412 146.336 363.66C146.336 365.004 145.4 366.06 143.588 366.06C141.944 366.06 140.72 365.184 140.588 363.504H141.644C141.752 364.428 142.424 365.136 143.576 365.136C144.74 365.136 145.292 364.452 145.292 363.564C145.292 362.34 144.44 361.872 142.88 361.872H142.604V360.96H142.892C144.344 360.948 145.124 360.504 145.124 359.496C145.124 358.668 144.572 358.092 143.528 358.092C142.508 358.092 141.896 358.668 141.788 359.508H140.72ZM149.058 365.328C149.058 365.748 148.734 366.072 148.338 366.072C147.918 366.072 147.594 365.748 147.594 365.328C147.594 364.908 147.918 364.584 148.338 364.584C148.734 364.584 149.058 364.908 149.058 365.328ZM149.058 360.192C149.058 360.612 148.734 360.936 148.338 360.936C147.918 360.936 147.594 360.612 147.594 360.192C147.594 359.772 147.918 359.448 148.338 359.448C148.734 359.448 149.058 359.772 149.058 360.192ZM150.365 361.572C150.365 359.088 150.989 357.192 153.389 357.192C155.777 357.192 156.401 359.088 156.401 361.572C156.401 364.092 155.777 366 153.389 366C150.989 366 150.365 364.092 150.365 361.572ZM155.321 361.572C155.321 359.772 155.093 358.188 153.389 358.188C151.673 358.188 151.445 359.772 151.445 361.572C151.445 363.444 151.673 365.004 153.389 365.004C155.093 365.004 155.321 363.444 155.321 361.572ZM157.9 361.572C157.9 359.088 158.524 357.192 160.924 357.192C163.312 357.192 163.936 359.088 163.936 361.572C163.936 364.092 163.312 366 160.924 366C158.524 366 157.9 364.092 157.9 361.572ZM162.856 361.572C162.856 359.772 162.628 358.188 160.924 358.188C159.208 358.188 158.98 359.772 158.98 361.572C158.98 363.444 159.208 365.004 160.924 365.004C162.628 365.004 162.856 363.444 162.856 361.572ZM166.707 361.608H168.315C169.563 361.608 170.091 361.02 170.091 360.084C170.091 359.112 169.563 358.536 168.315 358.536H166.707V361.608ZM171.207 360.084C171.207 361.356 170.391 362.508 168.315 362.508H166.707V366H165.615V357.636H168.315C170.283 357.636 171.207 358.716 171.207 360.084ZM172.565 366V357.696H173.741L176.813 364.56L179.885 357.696H181.049V366H179.957V359.808L177.197 366H176.429L173.657 359.796V366H172.565Z" fill="#717579"/>
<path d="M284.92 366V364.068H280.48V363.24L284.692 357.408H286V363.12H287.2V364.068H286V366H284.92ZM281.74 363.12H284.968V358.548L281.74 363.12ZM289.539 365.328C289.539 365.748 289.215 366.072 288.819 366.072C288.399 366.072 288.075 365.748 288.075 365.328C288.075 364.908 288.399 364.584 288.819 364.584C289.215 364.584 289.539 364.908 289.539 365.328ZM289.539 360.192C289.539 360.612 289.215 360.936 288.819 360.936C288.399 360.936 288.075 360.612 288.075 360.192C288.075 359.772 288.399 359.448 288.819 359.448C289.215 359.448 289.539 359.772 289.539 360.192ZM290.846 361.572C290.846 359.088 291.47 357.192 293.87 357.192C296.258 357.192 296.882 359.088 296.882 361.572C296.882 364.092 296.258 366 293.87 366C291.47 366 290.846 364.092 290.846 361.572ZM295.802 361.572C295.802 359.772 295.574 358.188 293.87 358.188C292.154 358.188 291.926 359.772 291.926 361.572C291.926 363.444 292.154 365.004 293.87 365.004C295.574 365.004 295.802 363.444 295.802 361.572ZM298.381 361.572C298.381 359.088 299.005 357.192 301.405 357.192C303.793 357.192 304.417 359.088 304.417 361.572C304.417 364.092 303.793 366 301.405 366C299.005 366 298.381 364.092 298.381 361.572ZM303.337 361.572C303.337 359.772 303.109 358.188 301.405 358.188C299.689 358.188 299.461 359.772 299.461 361.572C299.461 363.444 299.689 365.004 301.405 365.004C303.109 365.004 303.337 363.444 303.337 361.572ZM307.188 361.608H308.796C310.044 361.608 310.572 361.02 310.572 360.084C310.572 359.112 310.044 358.536 308.796 358.536H307.188V361.608ZM311.688 360.084C311.688 361.356 310.872 362.508 308.796 362.508H307.188V366H306.096V357.636H308.796C310.764 357.636 311.688 358.716 311.688 360.084ZM313.045 366V357.696H314.221L317.293 364.56L320.365 357.696H321.529V366H320.437V359.808L317.677 366H316.909L314.137 359.796V366H313.045Z" fill="#717579"/>
<path d="M422.056 357.312H427.276V358.272H423.064V361.008C423.424 360.516 424.192 360.132 425.044 360.132C427.156 360.132 427.828 361.656 427.828 363C427.828 364.68 426.892 366.024 424.864 366.024C423.136 366.024 422.092 365.052 421.876 363.648H422.944C423.148 364.56 423.856 365.1 424.876 365.1C426.196 365.1 426.784 364.212 426.784 363.024C426.784 361.788 426.148 361.068 424.888 361.068C424.012 361.068 423.376 361.524 423.088 362.208H422.056V357.312ZM430.527 365.328C430.527 365.748 430.203 366.072 429.807 366.072C429.387 366.072 429.063 365.748 429.063 365.328C429.063 364.908 429.387 364.584 429.807 364.584C430.203 364.584 430.527 364.908 430.527 365.328ZM430.527 360.192C430.527 360.612 430.203 360.936 429.807 360.936C429.387 360.936 429.063 360.612 429.063 360.192C429.063 359.772 429.387 359.448 429.807 359.448C430.203 359.448 430.527 359.772 430.527 360.192ZM431.834 361.572C431.834 359.088 432.458 357.192 434.858 357.192C437.246 357.192 437.87 359.088 437.87 361.572C437.87 364.092 437.246 366 434.858 366C432.458 366 431.834 364.092 431.834 361.572ZM436.79 361.572C436.79 359.772 436.562 358.188 434.858 358.188C433.142 358.188 432.914 359.772 432.914 361.572C432.914 363.444 433.142 365.004 434.858 365.004C436.562 365.004 436.79 363.444 436.79 361.572ZM439.369 361.572C439.369 359.088 439.993 357.192 442.393 357.192C444.781 357.192 445.405 359.088 445.405 361.572C445.405 364.092 444.781 366 442.393 366C439.993 366 439.369 364.092 439.369 361.572ZM444.325 361.572C444.325 359.772 444.097 358.188 442.393 358.188C440.677 358.188 440.449 359.772 440.449 361.572C440.449 363.444 440.677 365.004 442.393 365.004C444.097 365.004 444.325 363.444 444.325 361.572ZM448.176 361.608H449.784C451.032 361.608 451.56 361.02 451.56 360.084C451.56 359.112 451.032 358.536 449.784 358.536H448.176V361.608ZM452.676 360.084C452.676 361.356 451.86 362.508 449.784 362.508H448.176V366H447.084V357.636H449.784C451.752 357.636 452.676 358.716 452.676 360.084ZM454.033 366V357.696H455.209L458.281 364.56L461.353 357.696H462.517V366H461.425V359.808L458.665 366H457.897L455.125 359.796V366H454.033Z" fill="#717579"/>
<path d="M568.588 359.388H567.58C567.412 358.548 566.92 358.056 565.936 358.056C564.556 358.056 563.812 359.004 563.824 361.584C564.196 360.732 565.144 360.252 566.176 360.252C567.796 360.252 568.888 361.32 568.888 363.144C568.888 364.728 567.952 366.024 566.056 366.024C563.488 366.024 562.876 364.176 562.876 361.548C562.876 358.824 563.752 357.144 565.948 357.144C567.604 357.144 568.444 358.176 568.588 359.388ZM565.948 361.176C564.952 361.176 563.956 361.764 563.956 363.06C563.956 364.212 564.628 365.112 565.996 365.112C567.124 365.112 567.832 364.356 567.832 363.18C567.832 361.956 567.196 361.176 565.948 361.176ZM571.609 365.328C571.609 365.748 571.285 366.072 570.889 366.072C570.469 366.072 570.145 365.748 570.145 365.328C570.145 364.908 570.469 364.584 570.889 364.584C571.285 364.584 571.609 364.908 571.609 365.328ZM571.609 360.192C571.609 360.612 571.285 360.936 570.889 360.936C570.469 360.936 570.145 360.612 570.145 360.192C570.145 359.772 570.469 359.448 570.889 359.448C571.285 359.448 571.609 359.772 571.609 360.192ZM572.916 361.572C572.916 359.088 573.54 357.192 575.94 357.192C578.328 357.192 578.952 359.088 578.952 361.572C578.952 364.092 578.328 366 575.94 366C573.54 366 572.916 364.092 572.916 361.572ZM577.872 361.572C577.872 359.772 577.644 358.188 575.94 358.188C574.224 358.188 573.996 359.772 573.996 361.572C573.996 363.444 574.224 365.004 575.94 365.004C577.644 365.004 577.872 363.444 577.872 361.572ZM580.451 361.572C580.451 359.088 581.075 357.192 583.475 357.192C585.863 357.192 586.487 359.088 586.487 361.572C586.487 364.092 585.863 366 583.475 366C581.075 366 580.451 364.092 580.451 361.572ZM585.407 361.572C585.407 359.772 585.179 358.188 583.475 358.188C581.759 358.188 581.531 359.772 581.531 361.572C581.531 363.444 581.759 365.004 583.475 365.004C585.179 365.004 585.407 363.444 585.407 361.572ZM589.258 361.608H590.866C592.114 361.608 592.642 361.02 592.642 360.084C592.642 359.112 592.114 358.536 590.866 358.536H589.258V361.608ZM593.758 360.084C593.758 361.356 592.942 362.508 590.866 362.508H589.258V366H588.166V357.636H590.866C592.834 357.636 593.758 358.716 593.758 360.084ZM595.115 366V357.696H596.291L599.363 364.56L602.435 357.696H603.599V366H602.507V359.808L599.747 366H598.979L596.207 359.796V366H595.115Z" fill="#717579"/>
<path d="M703.396 357.348H709.084V358.176L705.748 366H704.644L708.028 358.284H703.396V357.348ZM711.543 365.328C711.543 365.748 711.219 366.072 710.823 366.072C710.403 366.072 710.079 365.748 710.079 365.328C710.079 364.908 710.403 364.584 710.823 364.584C711.219 364.584 711.543 364.908 711.543 365.328ZM711.543 360.192C711.543 360.612 711.219 360.936 710.823 360.936C710.403 360.936 710.079 360.612 710.079 360.192C710.079 359.772 710.403 359.448 710.823 359.448C711.219 359.448 711.543 359.772 711.543 360.192ZM712.849 361.572C712.849 359.088 713.473 357.192 715.873 357.192C718.261 357.192 718.885 359.088 718.885 361.572C718.885 364.092 718.261 366 715.873 366C713.473 366 712.849 364.092 712.849 361.572ZM717.805 361.572C717.805 359.772 717.577 358.188 715.873 358.188C714.157 358.188 713.929 359.772 713.929 361.572C713.929 363.444 714.157 365.004 715.873 365.004C717.577 365.004 717.805 363.444 717.805 361.572ZM720.385 361.572C720.385 359.088 721.009 357.192 723.409 357.192C725.797 357.192 726.421 359.088 726.421 361.572C726.421 364.092 725.797 366 723.409 366C721.009 366 720.385 364.092 720.385 361.572ZM725.341 361.572C725.341 359.772 725.113 358.188 723.409 358.188C721.693 358.188 721.465 359.772 721.465 361.572C721.465 363.444 721.693 365.004 723.409 365.004C725.113 365.004 725.341 363.444 725.341 361.572ZM729.192 361.608H730.8C732.048 361.608 732.576 361.02 732.576 360.084C732.576 359.112 732.048 358.536 730.8 358.536H729.192V361.608ZM733.692 360.084C733.692 361.356 732.876 362.508 730.8 362.508H729.192V366H728.1V357.636H730.8C732.768 357.636 733.692 358.716 733.692 360.084ZM735.049 366V357.696H736.225L739.297 364.56L742.369 357.696H743.533V366H742.441V359.808L739.681 366H738.913L736.141 359.796V366H735.049Z" fill="#717579"/>
<path d="M845.328 361.488C844.44 361.14 843.936 360.468 843.936 359.496C843.936 358.224 844.896 357.192 846.78 357.192C848.664 357.192 849.636 358.236 849.636 359.496C849.636 360.432 849.096 361.152 848.244 361.488C849.228 361.788 849.864 362.58 849.864 363.66C849.864 365.232 848.616 366.24 846.78 366.24C844.956 366.24 843.72 365.232 843.72 363.66C843.72 362.568 844.356 361.776 845.328 361.488ZM846.78 361.128C847.848 361.128 848.58 360.528 848.58 359.628C848.58 358.632 847.872 358.104 846.78 358.104C845.712 358.104 844.992 358.62 844.992 359.64C844.992 360.54 845.724 361.128 846.78 361.128ZM846.78 361.968C845.664 361.968 844.764 362.472 844.764 363.624C844.764 364.644 845.544 365.328 846.78 365.328C848.016 365.328 848.784 364.632 848.784 363.624C848.784 362.508 847.92 361.968 846.78 361.968ZM852.562 365.328C852.562 365.748 852.238 366.072 851.842 366.072C851.422 366.072 851.098 365.748 851.098 365.328C851.098 364.908 851.422 364.584 851.842 364.584C852.238 364.584 852.562 364.908 852.562 365.328ZM852.562 360.192C852.562 360.612 852.238 360.936 851.842 360.936C851.422 360.936 851.098 360.612 851.098 360.192C851.098 359.772 851.422 359.448 851.842 359.448C852.238 359.448 852.562 359.772 852.562 360.192ZM853.869 361.572C853.869 359.088 854.493 357.192 856.893 357.192C859.281 357.192 859.905 359.088 859.905 361.572C859.905 364.092 859.281 366 856.893 366C854.493 366 853.869 364.092 853.869 361.572ZM858.825 361.572C858.825 359.772 858.597 358.188 856.893 358.188C855.177 358.188 854.949 359.772 854.949 361.572C854.949 363.444 855.177 365.004 856.893 365.004C858.597 365.004 858.825 363.444 858.825 361.572ZM861.404 361.572C861.404 359.088 862.028 357.192 864.428 357.192C866.816 357.192 867.44 359.088 867.44 361.572C867.44 364.092 866.816 366 864.428 366C862.028 366 861.404 364.092 861.404 361.572ZM866.36 361.572C866.36 359.772 866.132 358.188 864.428 358.188C862.712 358.188 862.484 359.772 862.484 361.572C862.484 363.444 862.712 365.004 864.428 365.004C866.132 365.004 866.36 363.444 866.36 361.572ZM870.211 361.608H871.819C873.067 361.608 873.595 361.02 873.595 360.084C873.595 359.112 873.067 358.536 871.819 358.536H870.211V361.608ZM874.711 360.084C874.711 361.356 873.895 362.508 871.819 362.508H870.211V366H869.119V357.636H871.819C873.787 357.636 874.711 358.716 874.711 360.084ZM876.069 366V357.696H877.245L880.317 364.56L883.389 357.696H884.553V366H883.461V359.808L880.701 366H879.933L877.161 359.796V366H876.069Z" fill="#717579"/>
<rect x="-0.75" y="0.75" width="1.5" height="301.5" transform="matrix(-1 0 0 1 834.5 24)" stroke="#1D1B23" stroke-width="1.5" stroke-dasharray="2 4"/>
<rect x="675" y="329" width="183" height="28" fill="black"/>
<path d="M683.658 347V338.636H688.386V339.524H684.75V342.344H687.702V343.232H684.75V347H683.658ZM692.501 341.24C691.433 341.24 690.545 341.948 690.425 343.232H694.577C694.589 341.948 693.629 341.24 692.501 341.24ZM695.573 344.972C695.237 346.172 694.181 347.108 692.549 347.108C690.677 347.108 689.297 345.788 689.297 343.7C689.297 341.624 690.629 340.316 692.549 340.316C694.457 340.316 695.705 341.66 695.705 343.46C695.705 343.7 695.693 343.892 695.669 344.12H690.413C690.497 345.452 691.433 346.184 692.549 346.184C693.533 346.184 694.157 345.68 694.397 344.972H695.573ZM698.239 341.648C698.659 340.916 699.535 340.316 700.699 340.316C702.475 340.316 703.819 341.636 703.819 343.688C703.819 345.728 702.463 347.108 700.699 347.108C699.499 347.108 698.647 346.508 698.239 345.788V347H697.147V338.12H698.239V341.648ZM702.703 343.688C702.703 342.14 701.683 341.264 700.471 341.264C699.283 341.264 698.239 342.176 698.239 343.7C698.239 345.248 699.283 346.148 700.471 346.148C701.683 346.148 702.703 345.236 702.703 343.688ZM706.348 343.424V347H705.256V340.424H706.348V341.492C706.72 340.76 707.428 340.304 708.472 340.304V341.432H708.184C707.14 341.432 706.348 341.9 706.348 343.424ZM715.565 340.424V347H714.473V346.028C714.053 346.712 713.249 347.096 712.373 347.096C710.861 347.096 709.673 346.16 709.673 344.276V340.424H710.753V344.132C710.753 345.464 711.485 346.148 712.589 346.148C713.717 346.148 714.473 345.452 714.473 344.036V340.424H715.565ZM717 343.688C717 341.636 718.356 340.316 720.12 340.316C721.344 340.316 722.184 340.94 722.568 341.624V340.424H723.672V347H722.568V345.776C722.172 346.484 721.32 347.108 720.108 347.108C718.356 347.108 717 345.728 717 343.688ZM722.568 343.7C722.568 342.176 721.536 341.264 720.336 341.264C719.136 341.264 718.116 342.14 718.116 343.688C718.116 345.236 719.136 346.148 720.336 346.148C721.536 346.148 722.568 345.248 722.568 343.7ZM726.61 343.424V347H725.518V340.424H726.61V341.492C726.982 340.76 727.69 340.304 728.734 340.304V341.432H728.446C727.402 341.432 726.61 341.9 726.61 343.424ZM732.49 345.752L734.53 340.424H735.658L731.698 350.096H730.57L731.866 346.928L729.214 340.424H730.426L732.49 345.752ZM739.643 346.904V346.124C741.923 344.288 744.083 342.56 744.083 340.784C744.083 339.824 743.663 339.104 742.487 339.104C741.359 339.104 740.783 339.884 740.735 340.976H739.679C739.751 339.128 740.915 338.168 742.475 338.168C744.107 338.168 745.163 339.128 745.163 340.736C745.163 342.896 742.835 344.732 741.287 345.992H745.415V346.904H739.643ZM746.33 338.348H752.018V339.176L748.682 347H747.578L750.962 339.284H746.33V338.348ZM753.648 345.2V341.324H752.796V340.424H753.648V338.768H754.74V340.424H756.456V341.324H754.74V345.2C754.74 345.848 754.98 346.076 755.652 346.076H756.456V347H755.472C754.308 347 753.648 346.52 753.648 345.2ZM757.779 347V338.12H758.871V341.372C759.303 340.676 760.119 340.304 761.043 340.304C762.507 340.304 763.671 341.24 763.671 343.124V347H762.591V343.28C762.591 341.936 761.859 341.252 760.755 341.252C759.639 341.252 758.871 341.948 758.871 343.364V347H757.779ZM764.507 348.716L765.383 345.488H766.583L765.239 348.716H764.507ZM770.721 346.904V346.124C773.001 344.288 775.161 342.56 775.161 340.784C775.161 339.824 774.741 339.104 773.565 339.104C772.437 339.104 771.861 339.884 771.813 340.976H770.757C770.829 339.128 771.993 338.168 773.553 338.168C775.185 338.168 776.241 339.128 776.241 340.736C776.241 342.896 773.913 344.732 772.365 345.992H776.493V346.904H770.721ZM777.756 342.572C777.756 340.088 778.38 338.192 780.78 338.192C783.168 338.192 783.792 340.088 783.792 342.572C783.792 345.092 783.168 347 780.78 347C778.38 347 777.756 345.092 777.756 342.572ZM782.712 342.572C782.712 340.772 782.484 339.188 780.78 339.188C779.064 339.188 778.836 340.772 778.836 342.572C778.836 344.444 779.064 346.004 780.78 346.004C782.484 346.004 782.712 344.444 782.712 342.572ZM785.159 346.904V346.124C787.439 344.288 789.599 342.56 789.599 340.784C789.599 339.824 789.179 339.104 788.003 339.104C786.875 339.104 786.299 339.884 786.251 340.976H785.195C785.267 339.128 786.431 338.168 787.991 338.168C789.623 338.168 790.679 339.128 790.679 340.736C790.679 342.896 788.351 344.732 786.803 345.992H790.931V346.904H785.159ZM796.369 347V345.068H791.929V344.24L796.141 338.408H797.449V344.12H798.649V345.068H797.449V347H796.369ZM793.189 344.12H796.417V339.548L793.189 344.12ZM803.335 344.672H804.343C804.499 345.572 805.075 346.1 806.083 346.1C807.355 346.1 808.039 345.236 808.003 342.692C807.655 343.424 806.791 343.844 805.855 343.844C804.259 343.844 803.071 342.848 803.071 341.012C803.071 339.356 804.055 338.156 805.927 338.156C808.279 338.156 808.963 339.812 808.963 342.5C808.963 345.392 808.303 347.012 806.023 347.012C804.295 347.012 803.455 345.944 803.335 344.672ZM806.035 342.92C807.079 342.92 807.871 342.236 807.871 341.072C807.871 339.896 807.199 339.068 805.951 339.068C804.823 339.068 804.115 339.836 804.115 340.988C804.115 342.104 804.739 342.92 806.035 342.92ZM811.746 346.328C811.746 346.748 811.422 347.072 811.026 347.072C810.606 347.072 810.282 346.748 810.282 346.328C810.282 345.908 810.606 345.584 811.026 345.584C811.422 345.584 811.746 345.908 811.746 346.328ZM811.746 341.192C811.746 341.612 811.422 341.936 811.026 341.936C810.606 341.936 810.282 341.612 810.282 341.192C810.282 340.772 810.606 340.448 811.026 340.448C811.422 340.448 811.746 340.772 811.746 341.192ZM813.053 342.572C813.053 340.088 813.677 338.192 816.077 338.192C818.465 338.192 819.089 340.088 819.089 342.572C819.089 345.092 818.465 347 816.077 347C813.677 347 813.053 345.092 813.053 342.572ZM818.009 342.572C818.009 340.772 817.781 339.188 816.077 339.188C814.361 339.188 814.133 340.772 814.133 342.572C814.133 344.444 814.361 346.004 816.077 346.004C817.781 346.004 818.009 344.444 818.009 342.572ZM820.9 338.312H826.12V339.272H821.908V342.008C822.268 341.516 823.036 341.132 823.888 341.132C826 341.132 826.672 342.656 826.672 344C826.672 345.68 825.736 347.024 823.708 347.024C821.98 347.024 820.936 346.052 820.72 344.648H821.788C821.992 345.56 822.7 346.1 823.72 346.1C825.04 346.1 825.628 345.212 825.628 344.024C825.628 342.788 824.992 342.068 823.732 342.068C822.856 342.068 822.22 342.524 821.932 343.208H820.9V338.312ZM837.118 347L836.446 345.14H832.798L832.126 347H830.974L833.998 338.684H835.258L838.27 347H837.118ZM836.134 344.252L834.622 340.028L833.11 344.252H836.134ZM839.588 347V338.696H840.764L843.836 345.56L846.908 338.696H848.072V347H846.98V340.808L844.22 347H843.452L840.68 340.796V347H839.588Z" fill="white"/>
<rect x="0.749994" y="0.749994" width="1.49999" height="910.5" transform="matrix(-7.6718e-08 1 1 2.49053e-08 44 98)" stroke="#1D1B23" stroke-width="1.49999" stroke-dasharray="2 4"/>
<g clip-path="url(#clip0_599_2938)">
<rect x="828" y="92" width="14" height="14" fill="white"/>
<path d="M841.875 96.9375H843.25V90.75H837.062V92.125H841.875V96.9375Z" fill="black"/>
<path d="M826.75 96.9375H828.125V92.125H832.938V90.75H826.75V96.9375Z" fill="black"/>
<path d="M841.875 105.875H837.062V107.25H843.25V101.062H841.875V105.875Z" fill="black"/>
<path d="M828.125 101.062H826.75V107.25H832.938V105.875H828.125V101.062Z" fill="black"/>
<path d="M834.312 88.6875H835.688V94.1875H834.312V88.6875Z" fill="black"/>
<path d="M824.688 98.3125H830.188V99.6875H824.688V98.3125Z" fill="black"/>
<path d="M834.312 103.812H835.688V109.312H834.312V103.812Z" fill="black"/>
<path d="M839.812 98.3125H845.312V99.6875H839.812V98.3125Z" fill="black"/>
</g>
<rect x="957" y="86" width="75" height="28" fill="black"/>
<path d="M970.453 102.672H971.461C971.617 103.572 972.193 104.1 973.201 104.1C974.473 104.1 975.157 103.236 975.121 100.692C974.773 101.424 973.909 101.844 972.973 101.844C971.377 101.844 970.189 100.848 970.189 99.012C970.189 97.356 971.173 96.156 973.045 96.156C975.397 96.156 976.081 97.812 976.081 100.5C976.081 103.392 975.421 105.012 973.141 105.012C971.413 105.012 970.573 103.944 970.453 102.672ZM973.153 100.92C974.197 100.92 974.989 100.236 974.989 99.072C974.989 97.896 974.317 97.068 973.069 97.068C971.941 97.068 971.233 97.836 971.233 98.988C971.233 100.104 971.857 100.92 973.153 100.92ZM976.847 106.716L977.723 103.488H978.923L977.579 106.716H976.847ZM980.306 96.312H985.526V97.272H981.314V100.008C981.674 99.516 982.442 99.132 983.294 99.132C985.406 99.132 986.078 100.656 986.078 102C986.078 103.68 985.142 105.024 983.114 105.024C981.386 105.024 980.342 104.052 980.126 102.648H981.194C981.398 103.56 982.106 104.1 983.126 104.1C984.446 104.1 985.034 103.212 985.034 102.024C985.034 100.788 984.398 100.068 983.138 100.068C982.262 100.068 981.626 100.524 981.338 101.208H980.306V96.312ZM987.925 102.672H988.933C989.089 103.572 989.665 104.1 990.673 104.1C991.945 104.1 992.629 103.236 992.593 100.692C992.245 101.424 991.381 101.844 990.445 101.844C988.849 101.844 987.661 100.848 987.661 99.012C987.661 97.356 988.645 96.156 990.517 96.156C992.869 96.156 993.553 97.812 993.553 100.5C993.553 103.392 992.893 105.012 990.613 105.012C988.885 105.012 988.045 103.944 987.925 102.672ZM990.625 100.92C991.669 100.92 992.461 100.236 992.461 99.072C992.461 97.896 991.789 97.068 990.541 97.068C989.413 97.068 988.705 97.836 988.705 98.988C988.705 100.104 989.329 100.92 990.625 100.92ZM995.064 98.508C995.172 97.02 996.3 96.156 997.908 96.156C999.6 96.156 1000.52 97.14 1000.52 98.388C1000.52 99.384 999.9 100.164 998.988 100.368V100.428C999.996 100.668 1000.68 101.412 1000.68 102.66C1000.68 104.004 999.744 105.06 997.932 105.06C996.288 105.06 995.064 104.184 994.932 102.504H995.988C996.096 103.428 996.768 104.136 997.92 104.136C999.084 104.136 999.636 103.452 999.636 102.564C999.636 101.34 998.784 100.872 997.224 100.872H996.948V99.96H997.236C998.688 99.948 999.468 99.504 999.468 98.496C999.468 97.668 998.916 97.092 997.872 97.092C996.852 97.092 996.24 97.668 996.132 98.508H995.064ZM1003.4 104.328C1003.4 104.748 1003.08 105.072 1002.68 105.072C1002.26 105.072 1001.94 104.748 1001.94 104.328C1001.94 103.908 1002.26 103.584 1002.68 103.584C1003.08 103.584 1003.4 103.908 1003.4 104.328ZM1004.67 100.572C1004.67 98.088 1005.3 96.192 1007.7 96.192C1010.09 96.192 1010.71 98.088 1010.71 100.572C1010.71 103.092 1010.09 105 1007.7 105C1005.3 105 1004.67 103.092 1004.67 100.572ZM1009.63 100.572C1009.63 98.772 1009.4 97.188 1007.7 97.188C1005.98 97.188 1005.75 98.772 1005.75 100.572C1005.75 102.444 1005.98 104.004 1007.7 104.004C1009.4 104.004 1009.63 102.444 1009.63 100.572ZM1012.21 100.572C1012.21 98.088 1012.83 96.192 1015.23 96.192C1017.62 96.192 1018.24 98.088 1018.24 100.572C1018.24 103.092 1017.62 105 1015.23 105C1012.83 105 1012.21 103.092 1012.21 100.572ZM1017.16 100.572C1017.16 98.772 1016.94 97.188 1015.23 97.188C1013.52 97.188 1013.29 98.772 1013.29 100.572C1013.29 102.444 1013.52 104.004 1015.23 104.004C1016.94 104.004 1017.16 102.444 1017.16 100.572Z" fill="white"/>
<defs>
<clipPath id="clip0_599_2938">
<rect width="22" height="22" fill="white" transform="translate(824 88)"/>
</clipPath>
</defs>
</svg>
