<svg width="32" height="32" viewBox="0 0 32 32" fill="none" xmlns="http://www.w3.org/2000/svg">
<path d="M13.6593 23.3113C15.8044 23.3114 17.8882 22.5956 19.5806 21.2772L25.9654 27.6629C26.4423 28.1236 27.2023 28.1104 27.663 27.6334C28.1123 27.1681 28.1123 26.4303 27.663 25.965L21.2782 19.5793C24.5491 15.3681 23.7874 9.3023 19.5769 6.03089C15.3663 2.75948 9.30149 3.52128 6.03058 7.73247C2.75967 11.9437 3.52135 18.0095 7.7319 21.2809C9.42703 22.5979 11.5127 23.3124 13.6593 23.3113ZM8.52915 8.52615C11.3625 5.69235 15.9562 5.6923 18.7895 8.52604C21.6229 11.3598 21.6229 15.9542 18.7896 18.788C15.9563 21.6218 11.3626 21.6218 8.52926 18.7881C8.5292 18.788 8.5292 18.788 8.52915 18.788C5.69584 15.9749 5.67915 11.3972 8.49181 8.56349C8.50424 8.55101 8.51667 8.53858 8.52915 8.52615Z" fill="#717579"/>
</svg>
