<svg width="12" height="12" viewBox="0 0 12 12" fill="none" xmlns="http://www.w3.org/2000/svg">
<path d="M11.0856 10.383L11.0857 10.383L11.0857 10.3754L11.0763 6.50808L11.0763 6.50808C11.0753 6.08031 10.7277 5.73431 10.2999 5.73532L10.3004 5.98398L10.2999 5.73532C9.87205 5.73634 9.52608 6.08396 9.52709 6.51176L9.52709 6.51178L9.53193 8.50261L2.10412 1.0748C1.80161 0.772295 1.31116 0.772295 1.00865 1.0748C0.706144 1.37731 0.706144 1.86776 1.00865 2.17027L8.43645 9.59807L6.44564 9.59326L6.44563 9.59326C6.01783 9.59225 5.67021 9.93822 5.66919 10.366C5.66815 10.7939 6.01425 11.1415 6.44194 11.1425L6.44255 10.8925L6.44195 11.1425L10.3092 11.1519V11.152L10.3142 11.1518C10.739 11.1501 11.0825 10.8061 11.0856 10.383Z" fill="black" stroke="black" stroke-width="0.5"/>
</svg>
