<svg width="13" height="16" viewBox="0 0 13 16" fill="none" xmlns="http://www.w3.org/2000/svg">
<path d="M1.67269 6.68177H11.3766C11.5643 6.68177 11.7268 6.61659 11.8639 6.48612C12.001 6.35569 12.0698 6.20124 12.0698 6.02273C12.0698 5.84422 12.001 5.68984 11.8639 5.55923L7.01197 0.945643C6.87488 0.815359 6.71249 0.75 6.52464 0.75C6.3368 0.75 6.1744 0.815359 6.0372 0.945643L1.18524 5.55923C1.04804 5.6897 0.979492 5.84422 0.979492 6.02273C0.979492 6.20121 1.04804 6.35569 1.18524 6.48612C1.3226 6.61659 1.48499 6.68177 1.67269 6.68177Z" fill="#3E4954"/>
<path d="M11.3766 9.31836H1.67269C1.48484 9.31836 1.32245 9.38357 1.18524 9.51389C1.04804 9.64436 0.979492 9.79877 0.979492 9.97728C0.979492 10.1558 1.04804 10.3103 1.18524 10.4407L6.0372 15.0542C6.17456 15.1847 6.33695 15.25 6.52464 15.25C6.71234 15.25 6.87488 15.1847 7.01197 15.0542L11.8639 10.4407C12.001 10.3103 12.0698 10.1558 12.0698 9.97725C12.0698 9.79877 12.001 9.64436 11.8639 9.51386C11.7268 9.38343 11.5643 9.31836 11.3766 9.31836Z" fill="#D3D6E4"/>
</svg>
